<!DOCTYPE svg PUBLIC "-//W3C//DTD SVG 1.1//EN"
 "http://www.w3.org/Graphics/SVG/1.1/DTD/svg11.dtd">
<svg version="1.1"
 width="1200px" height="555px"
 viewBox="0 0 1200 555"
 xmlns="http://www.w3.org/2000/svg" shape-rendering="crispEdges"
 stroke-width="1" text-rendering="geometricPrecision">
<polygon fill="white" points="145,7 153,7 153,16 145,16"/>
<text x="150" y="16" textLength="7" font-family="Helvetica" font-size="12" fill="black" text-anchor="middle">

u
</text>
<polygon fill="white" points="445,7 453,7 453,16 445,16"/>
<text x="450" y="16" textLength="7" font-family="Helvetica" font-size="12" fill="black" text-anchor="middle">

a
</text>
<polygon fill="white" points="745,7 753,7 753,16 745,16"/>
<text x="750" y="16" textLength="7" font-family="Helvetica" font-size="12" fill="black" text-anchor="middle">

b
</text>
<polygon fill="white" points="1045,7 1053,7 1053,16 1045,16"/>
<text x="1050" y="16" textLength="6" font-family="Helvetica" font-size="12" fill="black" text-anchor="middle">

c
</text>
<line x1="150" y1="22" x2="150" y2="50" stroke="black"/>
<line x1="450" y1="22" x2="450" y2="50" stroke="black"/>
<line x1="750" y1="22" x2="750" y2="50" stroke="black"/>
<line x1="1050" y1="22" x2="1050" y2="50" stroke="black"/>
<line x1="150" y1="33" x2="450" y2="33" stroke="black"/>
<polygon fill="black" points="450,33 440,39 440,27"/>
<polygon fill="white" points="238,23 361,23 361,32 238,32"/>
<text x="239" y="32" textLength="121" font-family="Helvetica" font-size="12" fill="black">
registerCounterparty B
</text>
<path d="M 750 27 A150,6 0 0,1 750,39" stroke="black" fill="none"/><polygon fill="black" points="750,39 760,45 760,33"/>
<polygon fill="white" points="625,23 748,23 748,32 625,32"/>
<text x="626" y="32" textLength="121" font-family="Helvetica" font-size="12" fill="black">
registerCounterparty A
</text>
<line x1="150" y1="50" x2="150" y2="78" stroke="black"/>
<line x1="450" y1="50" x2="450" y2="78" stroke="black"/>
<line x1="750" y1="50" x2="750" y2="78" stroke="black"/>
<line x1="1050" y1="50" x2="1050" y2="78" stroke="black"/>
<polygon fill="white" points="308,50 592,50 592,72 308,72"/>
<line x1="308" y1="50" x2="592" y2="50" stroke="black"/>
<line x1="308" y1="72" x2="592" y2="72" stroke="black"/>
<line x1="308" y1="50" x2="308" y2="72" stroke="black"/>
<line x1="592" y1="50" x2="592" y2="72" stroke="black"/>
<polygon fill="white" points="422,57 477,57 477,66 422,66"/>
<text x="423" y="66" textLength="53" font-family="Helvetica" font-size="12" fill="black">
state New
</text>
<polygon fill="white" points="608,50 892,50 892,72 608,72"/>
<line x1="608" y1="50" x2="892" y2="50" stroke="black"/>
<line x1="608" y1="72" x2="892" y2="72" stroke="black"/>
<line x1="608" y1="50" x2="608" y2="72" stroke="black"/>
<line x1="892" y1="50" x2="892" y2="72" stroke="black"/>
<polygon fill="white" points="722,57 777,57 777,66 722,66"/>
<text x="723" y="66" textLength="53" font-family="Helvetica" font-size="12" fill="black">
state New
</text>
<line x1="150" y1="78" x2="150" y2="95" stroke="black"/>
<line x1="450" y1="78" x2="450" y2="95" stroke="black"/>
<line x1="750" y1="78" x2="750" y2="95" stroke="black"/>
<line x1="1050" y1="78" x2="1050" y2="95" stroke="black"/>
<line x1="150" y1="95" x2="150" y2="123" stroke="black"/>
<line x1="450" y1="95" x2="450" y2="123" stroke="black"/>
<line x1="750" y1="95" x2="750" y2="123" stroke="black"/>
<line x1="1050" y1="95" x2="1050" y2="123" stroke="black"/>
<line x1="150" y1="106" x2="450" y2="106" stroke="black"/>
<polygon fill="black" points="450,106 440,112 440,100"/>
<polygon fill="white" points="255,96 344,96 344,105 255,105"/>
<text x="256" y="105" textLength="87" font-family="Helvetica" font-size="12" fill="black">
fillChannel B, 10
</text>
<line x1="150" y1="123" x2="150" y2="151" stroke="black"/>
<line x1="450" y1="123" x2="450" y2="151" stroke="black"/>
<line x1="750" y1="123" x2="750" y2="151" stroke="black"/>
<line x1="1050" y1="123" x2="1050" y2="151" stroke="black"/>
<polygon fill="white" points="308,123 592,123 592,145 308,145"/>
<line x1="308" y1="123" x2="592" y2="123" stroke="black"/>
<line x1="308" y1="145" x2="592" y2="145" stroke="black"/>
<line x1="308" y1="123" x2="308" y2="145" stroke="black"/>
<line x1="592" y1="123" x2="592" y2="145" stroke="black"/>
<polygon fill="white" points="377,130 522,130 522,139 377,139"/>
<text x="378" y="139" textLength="143" font-family="Helvetica" font-size="12" fill="black">
state Proposing A: 10, B: 0
</text>
<line x1="150" y1="151" x2="150" y2="179" stroke="black"/>
<line x1="450" y1="151" x2="450" y2="179" stroke="black"/>
<line x1="750" y1="151" x2="750" y2="179" stroke="black"/>
<line x1="1050" y1="151" x2="1050" y2="179" stroke="black"/>
<line x1="450" y1="162" x2="750" y2="162" stroke="black"/>
<polygon fill="black" points="750,162 740,168 740,156"/>
<polygon fill="white" points="514,152 685,152 685,161 514,161"/>
<text x="515" y="161" textLength="169" font-family="Helvetica" font-size="12" fill="black">
propose newChannel A: 10, B:0
</text>
<line x1="150" y1="179" x2="150" y2="207" stroke="black"/>
<line x1="450" y1="179" x2="450" y2="207" stroke="black"/>
<line x1="750" y1="179" x2="750" y2="207" stroke="black"/>
<line x1="1050" y1="179" x2="1050" y2="207" stroke="black"/>
<polygon fill="white" points="608,179 892,179 892,201 608,201"/>
<line x1="608" y1="179" x2="892" y2="179" stroke="black"/>
<line x1="608" y1="201" x2="892" y2="201" stroke="black"/>
<line x1="608" y1="179" x2="608" y2="201" stroke="black"/>
<line x1="892" y1="179" x2="892" y2="201" stroke="black"/>
<polygon fill="white" points="662,186 837,186 837,195 662,195"/>
<text x="663" y="195" textLength="173" font-family="Helvetica" font-size="12" fill="black">
state OtherProposing A: 10, B: 0
</text>
<line x1="150" y1="207" x2="150" y2="224" stroke="black"/>
<line x1="450" y1="207" x2="450" y2="224" stroke="black"/>
<line x1="750" y1="207" x2="750" y2="224" stroke="black"/>
<line x1="1050" y1="207" x2="1050" y2="224" stroke="black"/>
<line x1="150" y1="224" x2="150" y2="241" stroke="black" stroke-dasharray="2,2"/>
<line x1="450" y1="224" x2="450" y2="241" stroke="black" stroke-dasharray="2,2"/>
<line x1="750" y1="224" x2="750" y2="241" stroke="black" stroke-dasharray="2,2"/>
<line x1="1050" y1="224" x2="1050" y2="241" stroke="black" stroke-dasharray="2,2"/>
<polygon fill="white" points="556,225 643,225 643,234 556,234"/>
<text x="557" y="234" textLength="85" font-family="Helvetica" font-size="12" fill="black">
Propose timer...
</text>
<line x1="150" y1="241" x2="150" y2="269" stroke="black"/>
<line x1="450" y1="241" x2="450" y2="269" stroke="black"/>
<line x1="750" y1="241" x2="750" y2="269" stroke="black"/>
<line x1="1050" y1="241" x2="1050" y2="269" stroke="black"/>
<polygon fill="white" points="608,241 892,241 892,263 608,263"/>
<line x1="608" y1="241" x2="892" y2="241" stroke="black"/>
<line x1="608" y1="263" x2="892" y2="263" stroke="black"/>
<line x1="608" y1="241" x2="608" y2="263" stroke="black"/>
<line x1="892" y1="241" x2="892" y2="263" stroke="black"/>
<polygon fill="white" points="696,248 803,248 803,257 696,257"/>
<text x="697" y="257" textLength="105" font-family="Helvetica" font-size="12" fill="black">
state OtherCreating
</text>
<line x1="150" y1="269" x2="150" y2="297" stroke="black"/>
<line x1="450" y1="269" x2="450" y2="297" stroke="black"/>
<line x1="750" y1="269" x2="750" y2="297" stroke="black"/>
<line x1="1050" y1="269" x2="1050" y2="297" stroke="black"/>
<line x1="750" y1="280" x2="450" y2="280" stroke="black" stroke-dasharray="2,2"/>
<polygon fill="black" points="450,280 460,286 460,274"/>
<polygon fill="white" points="518,270 681,270 681,279 518,279"/>
<text x="519" y="279" textLength="161" font-family="Helvetica" font-size="12" fill="black">
signed newChannel A: 10, B:0
</text>
<line x1="150" y1="297" x2="150" y2="325" stroke="black"/>
<line x1="450" y1="297" x2="450" y2="325" stroke="black"/>
<line x1="750" y1="297" x2="750" y2="325" stroke="black"/>
<line x1="1050" y1="297" x2="1050" y2="325" stroke="black"/>
<polygon fill="white" points="308,297 592,297 592,319 308,319"/>
<line x1="308" y1="297" x2="592" y2="297" stroke="black"/>
<line x1="308" y1="319" x2="592" y2="319" stroke="black"/>
<line x1="308" y1="297" x2="308" y2="319" stroke="black"/>
<line x1="592" y1="297" x2="592" y2="319" stroke="black"/>
<polygon fill="white" points="411,304 488,304 488,313 411,313"/>
<text x="412" y="313" textLength="75" font-family="Helvetica" font-size="12" fill="black">
state Creating
</text>
<line x1="150" y1="325" x2="150" y2="353" stroke="black"/>
<line x1="450" y1="325" x2="450" y2="353" stroke="black"/>
<line x1="750" y1="325" x2="750" y2="353" stroke="black"/>
<line x1="1050" y1="325" x2="1050" y2="353" stroke="black"/>
<line x1="450" y1="336" x2="1050" y2="336" stroke="black"/>
<polygon fill="black" points="1050,336 1040,342 1040,330"/>
<polygon fill="white" points="668,326 831,326 831,335 668,335"/>
<text x="669" y="335" textLength="161" font-family="Helvetica" font-size="12" fill="black">
submit newChannel A: 10, B:0
</text>
<line x1="150" y1="353" x2="150" y2="370" stroke="black" stroke-dasharray="2,2"/>
<line x1="450" y1="353" x2="450" y2="370" stroke="black" stroke-dasharray="2,2"/>
<line x1="750" y1="353" x2="750" y2="370" stroke="black" stroke-dasharray="2,2"/>
<line x1="1050" y1="353" x2="1050" y2="370" stroke="black" stroke-dasharray="2,2"/>
<polygon fill="white" points="545,354 653,354 653,363 545,363"/>
<text x="546" y="363" textLength="106" font-family="Helvetica" font-size="12" fill="black">
After some polling...
</text>
<line x1="150" y1="370" x2="150" y2="398" stroke="black"/>
<line x1="450" y1="370" x2="450" y2="398" stroke="black"/>
<line x1="750" y1="370" x2="750" y2="398" stroke="black"/>
<line x1="1050" y1="370" x2="1050" y2="398" stroke="black"/>
<line x1="1050" y1="381" x2="450" y2="381" stroke="black" stroke-dasharray="2,2"/>
<polygon fill="black" points="450,381 460,387 460,375"/>
<polygon fill="white" points="690,371 809,371 809,380 690,380"/>
<text x="691" y="380" textLength="117" font-family="Helvetica" font-size="12" fill="black">
channelOpened event
</text>
<line x1="150" y1="398" x2="150" y2="426" stroke="black"/>
<line x1="450" y1="398" x2="450" y2="426" stroke="black"/>
<line x1="750" y1="398" x2="750" y2="426" stroke="black"/>
<line x1="1050" y1="398" x2="1050" y2="426" stroke="black"/>
<line x1="450" y1="409" x2="750" y2="409" stroke="black"/>
<polygon fill="black" points="750,409 740,415 740,403"/>
<polygon fill="white" points="526,399 673,399 673,408 526,408"/>
<text x="527" y="408" textLength="145" font-family="Helvetica" font-size="12" fill="black">
channelOpened notification
</text>
<line x1="750" y1="409" x2="1050" y2="409" stroke="black"/>
<polygon fill="black" points="1050,409 1040,415 1040,403"/>
<polygon fill="white" points="840,399 959,399 959,408 840,408"/>
<text x="841" y="408" textLength="117" font-family="Helvetica" font-size="12" fill="black">
verify channelOpened
</text>
<line x1="150" y1="426" x2="150" y2="454" stroke="black"/>
<line x1="450" y1="426" x2="450" y2="454" stroke="black"/>
<line x1="750" y1="426" x2="750" y2="454" stroke="black"/>
<line x1="1050" y1="426" x2="1050" y2="454" stroke="black"/>
<line x1="1050" y1="437" x2="750" y2="437" stroke="black" stroke-dasharray="2,2"/>
<polygon fill="black" points="750,437 760,443 760,431"/>
<polygon fill="white" points="833,427 966,427 966,436 833,436"/>
<text x="834" y="436" textLength="131" font-family="Helvetica" font-size="12" fill="black">
channelOpened success
</text>
<line x1="150" y1="454" x2="150" y2="482" stroke="black"/>
<line x1="450" y1="454" x2="450" y2="482" stroke="black"/>
<line x1="750" y1="454" x2="750" y2="482" stroke="black"/>
<line x1="1050" y1="454" x2="1050" y2="482" stroke="black"/>
<polygon fill="white" points="608,454 892,454 892,476 608,476"/>
<line x1="608" y1="454" x2="892" y2="454" stroke="black"/>
<line x1="608" y1="476" x2="892" y2="476" stroke="black"/>
<line x1="608" y1="454" x2="608" y2="476" stroke="black"/>
<line x1="892" y1="454" x2="892" y2="476" stroke="black"/>
<polygon fill="white" points="719,461 780,461 780,470 719,470"/>
<text x="720" y="470" textLength="59" font-family="Helvetica" font-size="12" fill="black">
state Open
</text>
<line x1="150" y1="482" x2="150" y2="510" stroke="black"/>
<line x1="450" y1="482" x2="450" y2="510" stroke="black"/>
<line x1="750" y1="482" x2="750" y2="510" stroke="black"/>
<line x1="1050" y1="482" x2="1050" y2="510" stroke="black"/>
<line x1="750" y1="493" x2="450" y2="493" stroke="black" stroke-dasharray="2,2"/>
<polygon fill="black" points="450,493 460,499 460,487"/>
<polygon fill="white" points="533,483 666,483 666,492 533,492"/>
<text x="534" y="492" textLength="131" font-family="Helvetica" font-size="12" fill="black">
channelOpened success
</text>
<line x1="150" y1="510" x2="150" y2="538" stroke="black"/>
<line x1="450" y1="510" x2="450" y2="538" stroke="black"/>
<line x1="750" y1="510" x2="750" y2="538" stroke="black"/>
<line x1="1050" y1="510" x2="1050" y2="538" stroke="black"/>
<polygon fill="white" points="308,510 592,510 592,532 308,532"/>
<line x1="308" y1="510" x2="592" y2="510" stroke="black"/>
<line x1="308" y1="532" x2="592" y2="532" stroke="black"/>
<line x1="308" y1="510" x2="308" y2="532" stroke="black"/>
<line x1="592" y1="510" x2="592" y2="532" stroke="black"/>
<polygon fill="white" points="419,517 480,517 480,526 419,526"/>
<text x="420" y="526" textLength="59" font-family="Helvetica" font-size="12" fill="black">
state Open
</text>
<line x1="150" y1="538" x2="150" y2="555" stroke="black"/>
<line x1="450" y1="538" x2="450" y2="555" stroke="black"/>
<line x1="750" y1="538" x2="750" y2="555" stroke="black"/>
<line x1="1050" y1="538" x2="1050" y2="555" stroke="black"/>
<line x1="75" y1="543" x2="1125" y2="543" stroke="black" stroke-dasharray="2,2"/>
<polygon fill="white" points="535,539 663,539 663,548 535,548"/>
<text x="536" y="548" textLength="126" font-family="Helvetica" font-size="12" fill="black">
Channel is ready to use
</text>
<line x1="150" y1="549" x2="150" y2="555" stroke="black"/>
<line x1="450" y1="549" x2="450" y2="555" stroke="black"/>
<line x1="750" y1="549" x2="750" y2="555" stroke="black"/>
<line x1="1050" y1="549" x2="1050" y2="555" stroke="black"/>
</svg>
