<!DOCTYPE svg PUBLIC "-//W3C//DTD SVG 1.1//EN"
 "http://www.w3.org/Graphics/SVG/1.1/DTD/svg11.dtd">
<svg version="1.1"
 width="1200px" height="465px"
 viewBox="0 0 1200 465"
 xmlns="http://www.w3.org/2000/svg" shape-rendering="crispEdges"
 stroke-width="1" text-rendering="geometricPrecision">
<polygon fill="white" points="145,7 153,7 153,16 145,16"/>
<text x="150" y="16" textLength="7" font-family="Helvetica" font-size="12" fill="black" text-anchor="middle">

u
</text>
<polygon fill="white" points="445,7 453,7 453,16 445,16"/>
<text x="450" y="16" textLength="7" font-family="Helvetica" font-size="12" fill="black" text-anchor="middle">

a
</text>
<polygon fill="white" points="745,7 753,7 753,16 745,16"/>
<text x="750" y="16" textLength="7" font-family="Helvetica" font-size="12" fill="black" text-anchor="middle">

b
</text>
<polygon fill="white" points="1045,7 1053,7 1053,16 1045,16"/>
<text x="1050" y="16" textLength="6" font-family="Helvetica" font-size="12" fill="black" text-anchor="middle">

c
</text>
<line x1="150" y1="22" x2="150" y2="39" stroke="black"/>
<line x1="450" y1="22" x2="450" y2="39" stroke="black"/>
<line x1="750" y1="22" x2="750" y2="39" stroke="black"/>
<line x1="1050" y1="22" x2="1050" y2="39" stroke="black"/>
<line x1="75" y1="27" x2="1125" y2="27" stroke="black" stroke-dasharray="2,2"/>
<polygon fill="white" points="497,23 702,23 702,32 497,32"/>
<text x="498" y="32" textLength="203" font-family="Helvetica" font-size="12" fill="black">
Channel is already open with A:1, B: 9
</text>
<line x1="150" y1="39" x2="150" y2="67" stroke="black"/>
<line x1="450" y1="39" x2="450" y2="67" stroke="black"/>
<line x1="750" y1="39" x2="750" y2="67" stroke="black"/>
<line x1="1050" y1="39" x2="1050" y2="67" stroke="black"/>
<polygon fill="white" points="308,39 592,39 592,61 308,61"/>
<line x1="308" y1="39" x2="592" y2="39" stroke="black"/>
<line x1="308" y1="61" x2="592" y2="61" stroke="black"/>
<line x1="308" y1="39" x2="308" y2="61" stroke="black"/>
<line x1="592" y1="39" x2="592" y2="61" stroke="black"/>
<polygon fill="white" points="419,46 480,46 480,55 419,55"/>
<text x="420" y="55" textLength="59" font-family="Helvetica" font-size="12" fill="black">
state Open
</text>
<polygon fill="white" points="608,39 892,39 892,61 608,61"/>
<line x1="608" y1="39" x2="892" y2="39" stroke="black"/>
<line x1="608" y1="61" x2="892" y2="61" stroke="black"/>
<line x1="608" y1="39" x2="608" y2="61" stroke="black"/>
<line x1="892" y1="39" x2="892" y2="61" stroke="black"/>
<polygon fill="white" points="719,46 780,46 780,55 719,55"/>
<text x="720" y="55" textLength="59" font-family="Helvetica" font-size="12" fill="black">
state Open
</text>
<line x1="150" y1="67" x2="150" y2="95" stroke="black"/>
<line x1="450" y1="67" x2="450" y2="95" stroke="black"/>
<line x1="750" y1="67" x2="750" y2="95" stroke="black"/>
<line x1="1050" y1="67" x2="1050" y2="95" stroke="black"/>
<line x1="150" y1="78" x2="450" y2="78" stroke="black"/>
<polygon fill="black" points="450,78 440,84 440,72"/>
<polygon fill="white" points="255,68 344,68 344,77 255,77"/>
<text x="256" y="77" textLength="87" font-family="Helvetica" font-size="12" fill="black">
fillChannel B, 10
</text>
<line x1="150" y1="95" x2="150" y2="123" stroke="black"/>
<line x1="450" y1="95" x2="450" y2="123" stroke="black"/>
<line x1="750" y1="95" x2="750" y2="123" stroke="black"/>
<line x1="1050" y1="95" x2="1050" y2="123" stroke="black"/>
<line x1="450" y1="106" x2="750" y2="106" stroke="black"/>
<polygon fill="black" points="750,106 740,112 740,100"/>
<polygon fill="white" points="523,96 676,96 676,105 523,105"/>
<text x="524" y="105" textLength="151" font-family="Helvetica" font-size="12" fill="black">
propose reDraw A: 10, B: 10
</text>
<line x1="150" y1="123" x2="150" y2="151" stroke="black"/>
<line x1="450" y1="123" x2="450" y2="151" stroke="black"/>
<line x1="750" y1="123" x2="750" y2="151" stroke="black"/>
<line x1="1050" y1="123" x2="1050" y2="151" stroke="black"/>
<polygon fill="white" points="608,123 892,123 892,145 608,145"/>
<line x1="608" y1="123" x2="892" y2="123" stroke="black"/>
<line x1="608" y1="145" x2="892" y2="145" stroke="black"/>
<line x1="608" y1="123" x2="608" y2="145" stroke="black"/>
<line x1="892" y1="123" x2="892" y2="145" stroke="black"/>
<polygon fill="white" points="696,130 803,130 803,139 696,139"/>
<text x="697" y="139" textLength="105" font-family="Helvetica" font-size="12" fill="black">
state OtherCreating
</text>
<line x1="150" y1="151" x2="150" y2="179" stroke="black"/>
<line x1="450" y1="151" x2="450" y2="179" stroke="black"/>
<line x1="750" y1="151" x2="750" y2="179" stroke="black"/>
<line x1="1050" y1="151" x2="1050" y2="179" stroke="black"/>
<line x1="750" y1="162" x2="450" y2="162" stroke="black" stroke-dasharray="2,2"/>
<polygon fill="black" points="450,162 460,168 460,156"/>
<polygon fill="white" points="511,152 687,152 687,161 511,161"/>
<text x="512" y="161" textLength="174" font-family="Helvetica" font-size="12" fill="black">
signature on reDraw A: 10, B: 10
</text>
<line x1="150" y1="179" x2="150" y2="207" stroke="black"/>
<line x1="450" y1="179" x2="450" y2="207" stroke="black"/>
<line x1="750" y1="179" x2="750" y2="207" stroke="black"/>
<line x1="1050" y1="179" x2="1050" y2="207" stroke="black"/>
<polygon fill="white" points="308,179 592,179 592,201 308,201"/>
<line x1="308" y1="179" x2="592" y2="179" stroke="black"/>
<line x1="308" y1="201" x2="592" y2="201" stroke="black"/>
<line x1="308" y1="179" x2="308" y2="201" stroke="black"/>
<line x1="592" y1="179" x2="592" y2="201" stroke="black"/>
<polygon fill="white" points="411,186 488,186 488,195 411,195"/>
<text x="412" y="195" textLength="75" font-family="Helvetica" font-size="12" fill="black">
state Creating
</text>
<line x1="150" y1="207" x2="150" y2="235" stroke="black"/>
<line x1="450" y1="207" x2="450" y2="235" stroke="black"/>
<line x1="750" y1="207" x2="750" y2="235" stroke="black"/>
<line x1="1050" y1="207" x2="1050" y2="235" stroke="black"/>
<line x1="450" y1="218" x2="1050" y2="218" stroke="black"/>
<polygon fill="black" points="1050,218 1040,224 1040,212"/>
<polygon fill="white" points="677,208 822,208 822,217 677,217"/>
<text x="678" y="217" textLength="143" font-family="Helvetica" font-size="12" fill="black">
submit reDraw A: 10, B: 10
</text>
<line x1="150" y1="235" x2="150" y2="252" stroke="black" stroke-dasharray="2,2"/>
<line x1="450" y1="235" x2="450" y2="252" stroke="black" stroke-dasharray="2,2"/>
<line x1="750" y1="235" x2="750" y2="252" stroke="black" stroke-dasharray="2,2"/>
<line x1="1050" y1="235" x2="1050" y2="252" stroke="black" stroke-dasharray="2,2"/>
<polygon fill="white" points="545,236 653,236 653,245 545,245"/>
<text x="546" y="245" textLength="106" font-family="Helvetica" font-size="12" fill="black">
After some polling...
</text>
<line x1="150" y1="252" x2="150" y2="280" stroke="black"/>
<line x1="450" y1="252" x2="450" y2="280" stroke="black"/>
<line x1="750" y1="252" x2="750" y2="280" stroke="black"/>
<line x1="1050" y1="252" x2="1050" y2="280" stroke="black"/>
<line x1="1050" y1="263" x2="450" y2="263" stroke="black" stroke-dasharray="2,2"/>
<polygon fill="black" points="450,263 460,269 460,257"/>
<polygon fill="white" points="710,253 788,253 788,262 710,262"/>
<text x="711" y="262" textLength="76" font-family="Helvetica" font-size="12" fill="black">
ReDraw event
</text>
<line x1="150" y1="280" x2="150" y2="308" stroke="black"/>
<line x1="450" y1="280" x2="450" y2="308" stroke="black"/>
<line x1="750" y1="280" x2="750" y2="308" stroke="black"/>
<line x1="1050" y1="280" x2="1050" y2="308" stroke="black"/>
<line x1="150" y1="291" x2="375" y2="291" stroke="black"/>
<line x1="371" y1="287" x2="379" y2="295" stroke="black"/>
<line x1="379" y1="287" x2="371" y2="295" stroke="black"/>
<polygon fill="white" points="248,281 351,281 351,290 248,290"/>
<text x="249" y="290" textLength="101" font-family="Helvetica" font-size="12" fill="black">
makePayment B, 1
</text>
<line x1="150" y1="308" x2="150" y2="336" stroke="black"/>
<line x1="450" y1="308" x2="450" y2="336" stroke="black"/>
<line x1="750" y1="308" x2="750" y2="336" stroke="black"/>
<line x1="1050" y1="308" x2="1050" y2="336" stroke="black"/>
<line x1="450" y1="319" x2="750" y2="319" stroke="black"/>
<polygon fill="black" points="750,319 740,325 740,313"/>
<polygon fill="white" points="546,309 652,309 652,318 546,318"/>
<text x="547" y="318" textLength="104" font-family="Helvetica" font-size="12" fill="black">
ReDraw notification
</text>
<line x1="750" y1="319" x2="1050" y2="319" stroke="black"/>
<polygon fill="black" points="1050,319 1040,325 1040,313"/>
<polygon fill="white" points="861,309 938,309 938,318 861,318"/>
<text x="862" y="318" textLength="75" font-family="Helvetica" font-size="12" fill="black">
verify ReDraw
</text>
<line x1="150" y1="336" x2="150" y2="364" stroke="black"/>
<line x1="450" y1="336" x2="450" y2="364" stroke="black"/>
<line x1="750" y1="336" x2="750" y2="364" stroke="black"/>
<line x1="1050" y1="336" x2="1050" y2="364" stroke="black"/>
<line x1="1050" y1="347" x2="750" y2="347" stroke="black" stroke-dasharray="2,2"/>
<polygon fill="black" points="750,347 760,353 760,341"/>
<polygon fill="white" points="853,337 945,337 945,346 853,346"/>
<text x="854" y="346" textLength="90" font-family="Helvetica" font-size="12" fill="black">
ReDraw success
</text>
<line x1="150" y1="364" x2="150" y2="392" stroke="black"/>
<line x1="450" y1="364" x2="450" y2="392" stroke="black"/>
<line x1="750" y1="364" x2="750" y2="392" stroke="black"/>
<line x1="1050" y1="364" x2="1050" y2="392" stroke="black"/>
<polygon fill="white" points="608,364 892,364 892,386 608,386"/>
<line x1="608" y1="364" x2="892" y2="364" stroke="black"/>
<line x1="608" y1="386" x2="892" y2="386" stroke="black"/>
<line x1="608" y1="364" x2="608" y2="386" stroke="black"/>
<line x1="892" y1="364" x2="892" y2="386" stroke="black"/>
<polygon fill="white" points="719,371 780,371 780,380 719,380"/>
<text x="720" y="380" textLength="59" font-family="Helvetica" font-size="12" fill="black">
state Open
</text>
<line x1="150" y1="392" x2="150" y2="420" stroke="black"/>
<line x1="450" y1="392" x2="450" y2="420" stroke="black"/>
<line x1="750" y1="392" x2="750" y2="420" stroke="black"/>
<line x1="1050" y1="392" x2="1050" y2="420" stroke="black"/>
<line x1="750" y1="403" x2="450" y2="403" stroke="black" stroke-dasharray="2,2"/>
<polygon fill="black" points="450,403 460,409 460,397"/>
<polygon fill="white" points="553,393 645,393 645,402 553,402"/>
<text x="554" y="402" textLength="90" font-family="Helvetica" font-size="12" fill="black">
ReDraw success
</text>
<line x1="150" y1="420" x2="150" y2="448" stroke="black"/>
<line x1="450" y1="420" x2="450" y2="448" stroke="black"/>
<line x1="750" y1="420" x2="750" y2="448" stroke="black"/>
<line x1="1050" y1="420" x2="1050" y2="448" stroke="black"/>
<polygon fill="white" points="308,420 592,420 592,442 308,442"/>
<line x1="308" y1="420" x2="592" y2="420" stroke="black"/>
<line x1="308" y1="442" x2="592" y2="442" stroke="black"/>
<line x1="308" y1="420" x2="308" y2="442" stroke="black"/>
<line x1="592" y1="420" x2="592" y2="442" stroke="black"/>
<polygon fill="white" points="419,427 480,427 480,436 419,436"/>
<text x="420" y="436" textLength="59" font-family="Helvetica" font-size="12" fill="black">
state Open
</text>
<line x1="150" y1="448" x2="150" y2="465" stroke="black"/>
<line x1="450" y1="448" x2="450" y2="465" stroke="black"/>
<line x1="750" y1="448" x2="750" y2="465" stroke="black"/>
<line x1="1050" y1="448" x2="1050" y2="465" stroke="black"/>
<line x1="75" y1="453" x2="1125" y2="453" stroke="black" stroke-dasharray="2,2"/>
<polygon fill="white" points="535,449 663,449 663,458 535,458"/>
<text x="536" y="458" textLength="126" font-family="Helvetica" font-size="12" fill="black">
Channel is ready to use
</text>
<line x1="150" y1="459" x2="150" y2="465" stroke="black"/>
<line x1="450" y1="459" x2="450" y2="465" stroke="black"/>
<line x1="750" y1="459" x2="750" y2="465" stroke="black"/>
<line x1="1050" y1="459" x2="1050" y2="465" stroke="black"/>
</svg>
