<!DOCTYPE svg PUBLIC "-//W3C//DTD SVG 1.1//EN"
 "http://www.w3.org/Graphics/SVG/1.1/DTD/svg11.dtd">
<svg version="1.1"
 width="1200px" height="700px"
 viewBox="0 0 1200 700"
 xmlns="http://www.w3.org/2000/svg" shape-rendering="crispEdges"
 stroke-width="1" text-rendering="geometricPrecision">
<polygon fill="white" points="145,7 153,7 153,16 145,16"/>
<text x="150" y="16" textLength="7" font-family="Helvetica" font-size="12" fill="black" text-anchor="middle">

u
</text>
<polygon fill="white" points="445,7 453,7 453,16 445,16"/>
<text x="450" y="16" textLength="7" font-family="Helvetica" font-size="12" fill="black" text-anchor="middle">

a
</text>
<polygon fill="white" points="745,7 753,7 753,16 745,16"/>
<text x="750" y="16" textLength="7" font-family="Helvetica" font-size="12" fill="black" text-anchor="middle">

b
</text>
<polygon fill="white" points="1045,7 1053,7 1053,16 1045,16"/>
<text x="1050" y="16" textLength="6" font-family="Helvetica" font-size="12" fill="black" text-anchor="middle">

c
</text>
<line x1="150" y1="22" x2="150" y2="50" stroke="black"/>
<line x1="450" y1="22" x2="450" y2="50" stroke="black"/>
<line x1="750" y1="22" x2="750" y2="50" stroke="black"/>
<line x1="1050" y1="22" x2="1050" y2="50" stroke="black"/>
<line x1="150" y1="33" x2="450" y2="33" stroke="black"/>
<polygon fill="black" points="450,33 440,39 440,27"/>
<polygon fill="white" points="238,23 361,23 361,32 238,32"/>
<text x="239" y="32" textLength="121" font-family="Helvetica" font-size="12" fill="black">
registerCounterparty B
</text>
<line x1="150" y1="50" x2="150" y2="78" stroke="black"/>
<line x1="450" y1="50" x2="450" y2="78" stroke="black"/>
<line x1="750" y1="50" x2="750" y2="78" stroke="black"/>
<line x1="1050" y1="50" x2="1050" y2="78" stroke="black"/>
<path d="M 750 55 A150,6 0 0,1 750,67" stroke="black" fill="none"/><polygon fill="black" points="750,67 760,73 760,61"/>
<polygon fill="white" points="625,51 748,51 748,60 625,60"/>
<text x="626" y="60" textLength="121" font-family="Helvetica" font-size="12" fill="black">
registerCounterparty A
</text>
<line x1="150" y1="78" x2="150" y2="106" stroke="black"/>
<line x1="450" y1="78" x2="450" y2="106" stroke="black"/>
<line x1="750" y1="78" x2="750" y2="106" stroke="black"/>
<line x1="1050" y1="78" x2="1050" y2="106" stroke="black"/>
<polygon fill="white" points="308,78 592,78 592,100 308,100"/>
<line x1="308" y1="78" x2="592" y2="78" stroke="black"/>
<line x1="308" y1="100" x2="592" y2="100" stroke="black"/>
<line x1="308" y1="78" x2="308" y2="100" stroke="black"/>
<line x1="592" y1="78" x2="592" y2="100" stroke="black"/>
<polygon fill="white" points="422,85 477,85 477,94 422,94"/>
<text x="423" y="94" textLength="53" font-family="Helvetica" font-size="12" fill="black">
state New
</text>
<line x1="150" y1="106" x2="150" y2="134" stroke="black"/>
<line x1="450" y1="106" x2="450" y2="134" stroke="black"/>
<line x1="750" y1="106" x2="750" y2="134" stroke="black"/>
<line x1="1050" y1="106" x2="1050" y2="134" stroke="black"/>
<polygon fill="white" points="608,106 892,106 892,128 608,128"/>
<line x1="608" y1="106" x2="892" y2="106" stroke="black"/>
<line x1="608" y1="128" x2="892" y2="128" stroke="black"/>
<line x1="608" y1="106" x2="608" y2="128" stroke="black"/>
<line x1="892" y1="106" x2="892" y2="128" stroke="black"/>
<polygon fill="white" points="722,113 777,113 777,122 722,122"/>
<text x="723" y="122" textLength="53" font-family="Helvetica" font-size="12" fill="black">
state New
</text>
<line x1="150" y1="134" x2="150" y2="162" stroke="black"/>
<line x1="450" y1="134" x2="450" y2="162" stroke="black"/>
<line x1="750" y1="134" x2="750" y2="162" stroke="black"/>
<line x1="1050" y1="134" x2="1050" y2="162" stroke="black"/>
<line x1="150" y1="145" x2="450" y2="145" stroke="black"/>
<polygon fill="black" points="450,145 440,151 440,139"/>
<polygon fill="white" points="255,135 344,135 344,144 255,144"/>
<text x="256" y="144" textLength="87" font-family="Helvetica" font-size="12" fill="black">
fillChannel B, 10
</text>
<line x1="150" y1="162" x2="150" y2="190" stroke="black"/>
<line x1="450" y1="162" x2="450" y2="190" stroke="black"/>
<line x1="750" y1="162" x2="750" y2="190" stroke="black"/>
<line x1="1050" y1="162" x2="1050" y2="190" stroke="black"/>
<line x1="450" y1="173" x2="750" y2="173" stroke="black"/>
<polygon fill="black" points="750,173 740,179 740,167"/>
<polygon fill="white" points="525,163 674,163 674,172 525,172"/>
<text x="526" y="172" textLength="147" font-family="Helvetica" font-size="12" fill="black">
proposeChannel A: 10, B: 0
</text>
<line x1="150" y1="190" x2="150" y2="218" stroke="black"/>
<line x1="450" y1="190" x2="450" y2="218" stroke="black"/>
<line x1="750" y1="190" x2="750" y2="218" stroke="black"/>
<line x1="1050" y1="190" x2="1050" y2="218" stroke="black"/>
<polygon fill="white" points="608,190 892,190 892,212 608,212"/>
<line x1="608" y1="190" x2="892" y2="190" stroke="black"/>
<line x1="608" y1="212" x2="892" y2="212" stroke="black"/>
<line x1="608" y1="190" x2="608" y2="212" stroke="black"/>
<line x1="892" y1="190" x2="892" y2="212" stroke="black"/>
<polygon fill="white" points="666,197 832,197 832,206 666,206"/>
<text x="667" y="206" textLength="164" font-family="Helvetica" font-size="12" fill="black">
state OtherCreating A: 10, B: 0
</text>
<line x1="150" y1="218" x2="150" y2="246" stroke="black"/>
<line x1="450" y1="218" x2="450" y2="246" stroke="black"/>
<line x1="750" y1="218" x2="750" y2="246" stroke="black"/>
<line x1="1050" y1="218" x2="1050" y2="246" stroke="black"/>
<line x1="750" y1="229" x2="450" y2="229" stroke="black" stroke-dasharray="2,2"/>
<polygon fill="black" points="450,229 460,235 460,223"/>
<polygon fill="white" points="501,219 698,219 698,228 501,228"/>
<text x="502" y="228" textLength="195" font-family="Helvetica" font-size="12" fill="black">
signature on newChannel A: 10, B: 0
</text>
<line x1="150" y1="246" x2="150" y2="274" stroke="black"/>
<line x1="450" y1="246" x2="450" y2="274" stroke="black"/>
<line x1="750" y1="246" x2="750" y2="274" stroke="black"/>
<line x1="1050" y1="246" x2="1050" y2="274" stroke="black"/>
<polygon fill="white" points="308,246 592,246 592,268 308,268"/>
<line x1="308" y1="246" x2="592" y2="246" stroke="black"/>
<line x1="308" y1="268" x2="592" y2="268" stroke="black"/>
<line x1="308" y1="246" x2="308" y2="268" stroke="black"/>
<line x1="592" y1="246" x2="592" y2="268" stroke="black"/>
<polygon fill="white" points="381,253 517,253 517,262 381,262"/>
<text x="382" y="262" textLength="134" font-family="Helvetica" font-size="12" fill="black">
state Creating A: 10, B: 0
</text>
<line x1="150" y1="274" x2="150" y2="302" stroke="black"/>
<line x1="450" y1="274" x2="450" y2="302" stroke="black"/>
<line x1="750" y1="274" x2="750" y2="302" stroke="black"/>
<line x1="1050" y1="274" x2="1050" y2="302" stroke="black"/>
<line x1="450" y1="285" x2="1050" y2="285" stroke="black"/>
<polygon fill="black" points="1050,285 1040,291 1040,279"/>
<polygon fill="white" points="685,275 813,275 813,284 685,284"/>
<text x="686" y="284" textLength="126" font-family="Helvetica" font-size="12" fill="black">
newChannel A: 10, B: 0
</text>
<line x1="150" y1="302" x2="150" y2="330" stroke="black"/>
<line x1="450" y1="302" x2="450" y2="330" stroke="black"/>
<line x1="750" y1="302" x2="750" y2="330" stroke="black"/>
<line x1="1050" y1="302" x2="1050" y2="330" stroke="black"/>
<path d="M 750 307 A150,6 0 0,1 750,319" stroke="black" fill="none"/><polygon fill="black" points="750,319 760,325 760,313"/>
<polygon fill="white" points="659,303 748,303 748,312 659,312"/>
<text x="660" y="312" textLength="87" font-family="Helvetica" font-size="12" fill="black">
fillChannel A, 10
</text>
<line x1="150" y1="330" x2="150" y2="358" stroke="black"/>
<line x1="450" y1="330" x2="450" y2="358" stroke="black"/>
<line x1="750" y1="330" x2="750" y2="358" stroke="black"/>
<line x1="1050" y1="330" x2="1050" y2="358" stroke="black"/>
<line x1="750" y1="341" x2="450" y2="341" stroke="black"/>
<polygon fill="black" points="450,341 460,347 460,335"/>
<polygon fill="white" points="523,331 676,331 676,340 523,340"/>
<text x="524" y="340" textLength="151" font-family="Helvetica" font-size="12" fill="black">
propose reDraw A: 10, B: 10
</text>
<line x1="150" y1="358" x2="150" y2="386" stroke="black"/>
<line x1="450" y1="358" x2="450" y2="386" stroke="black"/>
<line x1="750" y1="358" x2="750" y2="386" stroke="black"/>
<line x1="1050" y1="358" x2="1050" y2="386" stroke="black"/>
<polygon fill="white" points="308,358 592,358 592,380 308,380"/>
<line x1="308" y1="358" x2="592" y2="358" stroke="black"/>
<line x1="308" y1="380" x2="592" y2="380" stroke="black"/>
<line x1="308" y1="358" x2="308" y2="380" stroke="black"/>
<line x1="592" y1="358" x2="592" y2="380" stroke="black"/>
<polygon fill="white" points="363,365 536,365 536,374 363,374"/>
<text x="364" y="374" textLength="171" font-family="Helvetica" font-size="12" fill="black">
state OtherCreating A: 10, B: 10
</text>
<line x1="150" y1="386" x2="150" y2="414" stroke="black"/>
<line x1="450" y1="386" x2="450" y2="414" stroke="black"/>
<line x1="750" y1="386" x2="750" y2="414" stroke="black"/>
<line x1="1050" y1="386" x2="1050" y2="414" stroke="black"/>
<line x1="450" y1="397" x2="750" y2="397" stroke="black" stroke-dasharray="2,2"/>
<polygon fill="black" points="750,397 740,403 740,391"/>
<polygon fill="white" points="511,387 687,387 687,396 511,396"/>
<text x="512" y="396" textLength="174" font-family="Helvetica" font-size="12" fill="black">
signature on reDraw A: 10, B: 10
</text>
<line x1="150" y1="414" x2="150" y2="442" stroke="black"/>
<line x1="450" y1="414" x2="450" y2="442" stroke="black"/>
<line x1="750" y1="414" x2="750" y2="442" stroke="black"/>
<line x1="1050" y1="414" x2="1050" y2="442" stroke="black"/>
<polygon fill="white" points="608,414 892,414 892,436 608,436"/>
<line x1="608" y1="414" x2="892" y2="414" stroke="black"/>
<line x1="608" y1="436" x2="892" y2="436" stroke="black"/>
<line x1="608" y1="414" x2="608" y2="436" stroke="black"/>
<line x1="892" y1="414" x2="892" y2="436" stroke="black"/>
<polygon fill="white" points="678,421 821,421 821,430 678,430"/>
<text x="679" y="430" textLength="141" font-family="Helvetica" font-size="12" fill="black">
state Creating A: 10, B: 10
</text>
<line x1="150" y1="442" x2="150" y2="470" stroke="black"/>
<line x1="450" y1="442" x2="450" y2="470" stroke="black"/>
<line x1="750" y1="442" x2="750" y2="470" stroke="black"/>
<line x1="1050" y1="442" x2="1050" y2="470" stroke="black"/>
<line x1="750" y1="453" x2="1050" y2="453" stroke="black"/>
<polygon fill="black" points="1050,453 1040,459 1040,447"/>
<polygon fill="white" points="827,443 972,443 972,452 827,452"/>
<text x="828" y="452" textLength="143" font-family="Helvetica" font-size="12" fill="black">
submit reDraw A: 10, B: 10
</text>
<line x1="150" y1="470" x2="150" y2="487" stroke="black" stroke-dasharray="2,2"/>
<line x1="450" y1="470" x2="450" y2="487" stroke="black" stroke-dasharray="2,2"/>
<line x1="750" y1="470" x2="750" y2="487" stroke="black" stroke-dasharray="2,2"/>
<line x1="1050" y1="470" x2="1050" y2="487" stroke="black" stroke-dasharray="2,2"/>
<polygon fill="white" points="545,471 653,471 653,480 545,480"/>
<text x="546" y="480" textLength="106" font-family="Helvetica" font-size="12" fill="black">
After some polling...
</text>
<line x1="150" y1="487" x2="150" y2="515" stroke="black"/>
<line x1="450" y1="487" x2="450" y2="515" stroke="black"/>
<line x1="750" y1="487" x2="750" y2="515" stroke="black"/>
<line x1="1050" y1="487" x2="1050" y2="515" stroke="black"/>
<line x1="1050" y1="498" x2="750" y2="498" stroke="black" stroke-dasharray="2,2"/>
<polygon fill="black" points="750,498 760,504 760,492"/>
<polygon fill="white" points="830,488 969,488 969,497 830,497"/>
<text x="831" y="497" textLength="137" font-family="Helvetica" font-size="12" fill="black">
reDraw event A: 10, B: 10
</text>
<line x1="150" y1="515" x2="150" y2="543" stroke="black"/>
<line x1="450" y1="515" x2="450" y2="543" stroke="black"/>
<line x1="750" y1="515" x2="750" y2="543" stroke="black"/>
<line x1="1050" y1="515" x2="1050" y2="543" stroke="black"/>
<line x1="750" y1="526" x2="450" y2="526" stroke="black"/>
<polygon fill="black" points="450,526 460,532 460,520"/>
<polygon fill="white" points="549,516 650,516 650,525 549,525"/>
<text x="550" y="525" textLength="99" font-family="Helvetica" font-size="12" fill="black">
reDraw notification
</text>
<line x1="150" y1="543" x2="150" y2="571" stroke="black"/>
<line x1="450" y1="543" x2="450" y2="571" stroke="black"/>
<line x1="750" y1="543" x2="750" y2="571" stroke="black"/>
<line x1="1050" y1="543" x2="1050" y2="571" stroke="black"/>
<line x1="450" y1="554" x2="1050" y2="554" stroke="black"/>
<polygon fill="black" points="1050,554 1040,560 1040,548"/>
<polygon fill="white" points="711,544 788,544 788,553 711,553"/>
<text x="712" y="553" textLength="75" font-family="Helvetica" font-size="12" fill="black">
verify ReDraw
</text>
<line x1="150" y1="571" x2="150" y2="599" stroke="black"/>
<line x1="450" y1="571" x2="450" y2="599" stroke="black"/>
<line x1="750" y1="571" x2="750" y2="599" stroke="black"/>
<line x1="1050" y1="571" x2="1050" y2="599" stroke="black"/>
<line x1="1050" y1="582" x2="450" y2="582" stroke="black" stroke-dasharray="2,2"/>
<polygon fill="black" points="450,582 460,588 460,576"/>
<polygon fill="white" points="706,572 793,572 793,581 706,581"/>
<text x="707" y="581" textLength="85" font-family="Helvetica" font-size="12" fill="black">
reDraw success
</text>
<line x1="150" y1="599" x2="150" y2="627" stroke="black"/>
<line x1="450" y1="599" x2="450" y2="627" stroke="black"/>
<line x1="750" y1="599" x2="750" y2="627" stroke="black"/>
<line x1="1050" y1="599" x2="1050" y2="627" stroke="black"/>
<polygon fill="white" points="308,599 592,599 592,621 308,621"/>
<line x1="308" y1="599" x2="592" y2="599" stroke="black"/>
<line x1="308" y1="621" x2="592" y2="621" stroke="black"/>
<line x1="308" y1="599" x2="308" y2="621" stroke="black"/>
<line x1="592" y1="599" x2="592" y2="621" stroke="black"/>
<polygon fill="white" points="419,606 480,606 480,615 419,615"/>
<text x="420" y="615" textLength="59" font-family="Helvetica" font-size="12" fill="black">
state Open
</text>
<line x1="150" y1="627" x2="150" y2="655" stroke="black"/>
<line x1="450" y1="627" x2="450" y2="655" stroke="black"/>
<line x1="750" y1="627" x2="750" y2="655" stroke="black"/>
<line x1="1050" y1="627" x2="1050" y2="655" stroke="black"/>
<line x1="450" y1="638" x2="750" y2="638" stroke="black" stroke-dasharray="2,2"/>
<polygon fill="black" points="750,638 740,644 740,632"/>
<polygon fill="white" points="556,628 643,628 643,637 556,637"/>
<text x="557" y="637" textLength="85" font-family="Helvetica" font-size="12" fill="black">
reDraw success
</text>
<line x1="150" y1="655" x2="150" y2="683" stroke="black"/>
<line x1="450" y1="655" x2="450" y2="683" stroke="black"/>
<line x1="750" y1="655" x2="750" y2="683" stroke="black"/>
<line x1="1050" y1="655" x2="1050" y2="683" stroke="black"/>
<polygon fill="white" points="608,655 892,655 892,677 608,677"/>
<line x1="608" y1="655" x2="892" y2="655" stroke="black"/>
<line x1="608" y1="677" x2="892" y2="677" stroke="black"/>
<line x1="608" y1="655" x2="608" y2="677" stroke="black"/>
<line x1="892" y1="655" x2="892" y2="677" stroke="black"/>
<polygon fill="white" points="719,662 780,662 780,671 719,671"/>
<text x="720" y="671" textLength="59" font-family="Helvetica" font-size="12" fill="black">
state Open
</text>
<line x1="150" y1="683" x2="150" y2="700" stroke="black"/>
<line x1="450" y1="683" x2="450" y2="700" stroke="black"/>
<line x1="750" y1="683" x2="750" y2="700" stroke="black"/>
<line x1="1050" y1="683" x2="1050" y2="700" stroke="black"/>
<line x1="75" y1="688" x2="1125" y2="688" stroke="black" stroke-dasharray="2,2"/>
<polygon fill="white" points="535,684 663,684 663,693 535,693"/>
<text x="536" y="693" textLength="126" font-family="Helvetica" font-size="12" fill="black">
Channel is ready to use
</text>
<line x1="150" y1="694" x2="150" y2="700" stroke="black"/>
<line x1="450" y1="694" x2="450" y2="700" stroke="black"/>
<line x1="750" y1="694" x2="750" y2="700" stroke="black"/>
<line x1="1050" y1="694" x2="1050" y2="700" stroke="black"/>
</svg>
