<!DOCTYPE svg PUBLIC "-//W3C//DTD SVG 1.1//EN"
 "http://www.w3.org/Graphics/SVG/1.1/DTD/svg11.dtd">
<svg version="1.1"
 width="1200px" height="784px"
 viewBox="0 0 1200 784"
 xmlns="http://www.w3.org/2000/svg" shape-rendering="crispEdges"
 stroke-width="1" text-rendering="geometricPrecision">
<polygon fill="white" points="145,7 153,7 153,16 145,16"/>
<text x="150" y="16" textLength="7" font-family="Helvetica" font-size="12" fill="black" text-anchor="middle">

u
</text>
<polygon fill="white" points="445,7 453,7 453,16 445,16"/>
<text x="450" y="16" textLength="7" font-family="Helvetica" font-size="12" fill="black" text-anchor="middle">

a
</text>
<polygon fill="white" points="745,7 753,7 753,16 745,16"/>
<text x="750" y="16" textLength="7" font-family="Helvetica" font-size="12" fill="black" text-anchor="middle">

b
</text>
<polygon fill="white" points="1045,7 1053,7 1053,16 1045,16"/>
<text x="1050" y="16" textLength="6" font-family="Helvetica" font-size="12" fill="black" text-anchor="middle">

c
</text>
<line x1="150" y1="22" x2="150" y2="50" stroke="black"/>
<line x1="450" y1="22" x2="450" y2="50" stroke="black"/>
<line x1="750" y1="22" x2="750" y2="50" stroke="black"/>
<line x1="1050" y1="22" x2="1050" y2="50" stroke="black"/>
<line x1="150" y1="33" x2="450" y2="33" stroke="black"/>
<polygon fill="black" points="450,33 440,39 440,27"/>
<polygon fill="white" points="238,23 361,23 361,32 238,32"/>
<text x="239" y="32" textLength="121" font-family="Helvetica" font-size="12" fill="black">
registerCounterparty B
</text>
<line x1="150" y1="50" x2="150" y2="78" stroke="black"/>
<line x1="450" y1="50" x2="450" y2="78" stroke="black"/>
<line x1="750" y1="50" x2="750" y2="78" stroke="black"/>
<line x1="1050" y1="50" x2="1050" y2="78" stroke="black"/>
<path d="M 750 55 A150,6 0 0,1 750,67" stroke="black" fill="none"/><polygon fill="black" points="750,67 760,73 760,61"/>
<polygon fill="white" points="625,51 748,51 748,60 625,60"/>
<text x="626" y="60" textLength="121" font-family="Helvetica" font-size="12" fill="black">
registerCounterparty A
</text>
<line x1="150" y1="78" x2="150" y2="106" stroke="black"/>
<line x1="450" y1="78" x2="450" y2="106" stroke="black"/>
<line x1="750" y1="78" x2="750" y2="106" stroke="black"/>
<line x1="1050" y1="78" x2="1050" y2="106" stroke="black"/>
<polygon fill="white" points="308,78 592,78 592,100 308,100"/>
<line x1="308" y1="78" x2="592" y2="78" stroke="black"/>
<line x1="308" y1="100" x2="592" y2="100" stroke="black"/>
<line x1="308" y1="78" x2="308" y2="100" stroke="black"/>
<line x1="592" y1="78" x2="592" y2="100" stroke="black"/>
<polygon fill="white" points="422,85 477,85 477,94 422,94"/>
<text x="423" y="94" textLength="53" font-family="Helvetica" font-size="12" fill="black">
state New
</text>
<line x1="150" y1="106" x2="150" y2="134" stroke="black"/>
<line x1="450" y1="106" x2="450" y2="134" stroke="black"/>
<line x1="750" y1="106" x2="750" y2="134" stroke="black"/>
<line x1="1050" y1="106" x2="1050" y2="134" stroke="black"/>
<polygon fill="white" points="608,106 892,106 892,128 608,128"/>
<line x1="608" y1="106" x2="892" y2="106" stroke="black"/>
<line x1="608" y1="128" x2="892" y2="128" stroke="black"/>
<line x1="608" y1="106" x2="608" y2="128" stroke="black"/>
<line x1="892" y1="106" x2="892" y2="128" stroke="black"/>
<polygon fill="white" points="722,113 777,113 777,122 722,122"/>
<text x="723" y="122" textLength="53" font-family="Helvetica" font-size="12" fill="black">
state New
</text>
<line x1="150" y1="134" x2="150" y2="162" stroke="black"/>
<line x1="450" y1="134" x2="450" y2="162" stroke="black"/>
<line x1="750" y1="134" x2="750" y2="162" stroke="black"/>
<line x1="1050" y1="134" x2="1050" y2="162" stroke="black"/>
<line x1="150" y1="145" x2="450" y2="145" stroke="black"/>
<polygon fill="black" points="450,145 440,151 440,139"/>
<polygon fill="white" points="255,135 344,135 344,144 255,144"/>
<text x="256" y="144" textLength="87" font-family="Helvetica" font-size="12" fill="black">
fillChannel B, 10
</text>
<line x1="150" y1="162" x2="150" y2="190" stroke="black"/>
<line x1="450" y1="162" x2="450" y2="190" stroke="black"/>
<line x1="750" y1="162" x2="750" y2="190" stroke="black"/>
<line x1="1050" y1="162" x2="1050" y2="190" stroke="black"/>
<line x1="450" y1="173" x2="750" y2="173" stroke="black"/>
<polygon fill="black" points="750,173 740,179 740,167"/>
<polygon fill="white" points="525,163 674,163 674,172 525,172"/>
<text x="526" y="172" textLength="147" font-family="Helvetica" font-size="12" fill="black">
proposeChannel A: 10, B: 0
</text>
<line x1="150" y1="190" x2="150" y2="218" stroke="black"/>
<line x1="450" y1="190" x2="450" y2="218" stroke="black"/>
<line x1="750" y1="190" x2="750" y2="218" stroke="black"/>
<line x1="1050" y1="190" x2="1050" y2="218" stroke="black"/>
<polygon fill="white" points="608,190 892,190 892,212 608,212"/>
<line x1="608" y1="190" x2="892" y2="190" stroke="black"/>
<line x1="608" y1="212" x2="892" y2="212" stroke="black"/>
<line x1="608" y1="190" x2="608" y2="212" stroke="black"/>
<line x1="892" y1="190" x2="892" y2="212" stroke="black"/>
<polygon fill="white" points="666,197 832,197 832,206 666,206"/>
<text x="667" y="206" textLength="164" font-family="Helvetica" font-size="12" fill="black">
state OtherCreating A: 10, B: 0
</text>
<line x1="150" y1="218" x2="150" y2="246" stroke="black"/>
<line x1="450" y1="218" x2="450" y2="246" stroke="black"/>
<line x1="750" y1="218" x2="750" y2="246" stroke="black"/>
<line x1="1050" y1="218" x2="1050" y2="246" stroke="black"/>
<line x1="750" y1="229" x2="450" y2="229" stroke="black" stroke-dasharray="2,2"/>
<polygon fill="black" points="450,229 460,235 460,223"/>
<polygon fill="white" points="535,219 663,219 663,228 535,228"/>
<text x="536" y="228" textLength="126" font-family="Helvetica" font-size="12" fill="black">
newChannel A: 10, B: 0
</text>
<line x1="150" y1="246" x2="150" y2="274" stroke="black"/>
<line x1="450" y1="246" x2="450" y2="274" stroke="black"/>
<line x1="750" y1="246" x2="750" y2="274" stroke="black"/>
<line x1="1050" y1="246" x2="1050" y2="274" stroke="black"/>
<polygon fill="white" points="308,246 592,246 592,268 308,268"/>
<line x1="308" y1="246" x2="592" y2="246" stroke="black"/>
<line x1="308" y1="268" x2="592" y2="268" stroke="black"/>
<line x1="308" y1="246" x2="308" y2="268" stroke="black"/>
<line x1="592" y1="246" x2="592" y2="268" stroke="black"/>
<polygon fill="white" points="381,253 517,253 517,262 381,262"/>
<text x="382" y="262" textLength="134" font-family="Helvetica" font-size="12" fill="black">
state Creating A: 10, B: 0
</text>
<line x1="150" y1="274" x2="150" y2="302" stroke="black"/>
<line x1="450" y1="274" x2="450" y2="302" stroke="black"/>
<line x1="750" y1="274" x2="750" y2="302" stroke="black"/>
<line x1="1050" y1="274" x2="1050" y2="302" stroke="black"/>
<line x1="450" y1="285" x2="1050" y2="285" stroke="black"/>
<polygon fill="black" points="1050,285 1040,291 1040,279"/>
<polygon fill="white" points="685,275 813,275 813,284 685,284"/>
<text x="686" y="284" textLength="126" font-family="Helvetica" font-size="12" fill="black">
newChannel A: 10, B: 0
</text>
<line x1="150" y1="302" x2="150" y2="330" stroke="black"/>
<line x1="450" y1="302" x2="450" y2="330" stroke="black"/>
<line x1="750" y1="302" x2="750" y2="330" stroke="black"/>
<line x1="1050" y1="302" x2="1050" y2="330" stroke="black"/>
<path d="M 750 307 A150,6 0 0,1 750,319" stroke="black" fill="none"/><polygon fill="black" points="750,319 760,325 760,313"/>
<polygon fill="white" points="659,303 748,303 748,312 659,312"/>
<text x="660" y="312" textLength="87" font-family="Helvetica" font-size="12" fill="black">
fillChannel A, 10
</text>
<line x1="150" y1="330" x2="150" y2="358" stroke="black"/>
<line x1="450" y1="330" x2="450" y2="358" stroke="black"/>
<line x1="750" y1="330" x2="750" y2="358" stroke="black"/>
<line x1="1050" y1="330" x2="1050" y2="358" stroke="black"/>
<line x1="750" y1="341" x2="450" y2="341" stroke="black"/>
<polygon fill="black" points="450,341 460,347 460,335"/>
<polygon fill="white" points="527,331 672,331 672,340 527,340"/>
<text x="528" y="340" textLength="143" font-family="Helvetica" font-size="12" fill="black">
propose closeChannelFast
</text>
<line x1="150" y1="358" x2="150" y2="386" stroke="black"/>
<line x1="450" y1="358" x2="450" y2="386" stroke="black"/>
<line x1="750" y1="358" x2="750" y2="386" stroke="black"/>
<line x1="1050" y1="358" x2="1050" y2="386" stroke="black"/>
<line x1="750" y1="369" x2="450" y2="369" stroke="black"/>
<polygon fill="black" points="450,369 460,375 460,363"/>
<polygon fill="white" points="509,359 690,359 690,368 509,368"/>
<text x="510" y="368" textLength="179" font-family="Helvetica" font-size="12" fill="black">
propose newChannel A: 10, B: 10
</text>
<line x1="150" y1="386" x2="150" y2="414" stroke="black"/>
<line x1="450" y1="386" x2="450" y2="414" stroke="black"/>
<line x1="750" y1="386" x2="750" y2="414" stroke="black"/>
<line x1="1050" y1="386" x2="1050" y2="414" stroke="black"/>
<polygon fill="white" points="308,386 592,386 592,408 308,408"/>
<line x1="308" y1="386" x2="592" y2="386" stroke="black"/>
<line x1="308" y1="408" x2="592" y2="408" stroke="black"/>
<line x1="308" y1="386" x2="308" y2="408" stroke="black"/>
<line x1="592" y1="386" x2="592" y2="408" stroke="black"/>
<polygon fill="white" points="363,393 536,393 536,402 363,402"/>
<text x="364" y="402" textLength="171" font-family="Helvetica" font-size="12" fill="black">
state OtherCreating A: 10, B: 10
</text>
<line x1="150" y1="414" x2="150" y2="442" stroke="black"/>
<line x1="450" y1="414" x2="450" y2="442" stroke="black"/>
<line x1="750" y1="414" x2="750" y2="442" stroke="black"/>
<line x1="1050" y1="414" x2="1050" y2="442" stroke="black"/>
<line x1="450" y1="425" x2="750" y2="425" stroke="black" stroke-dasharray="2,2"/>
<polygon fill="black" points="750,425 740,431 740,419"/>
<polygon fill="white" points="524,415 675,415 675,424 524,424"/>
<text x="525" y="424" textLength="149" font-family="Helvetica" font-size="12" fill="black">
signature closeChannelFast
</text>
<line x1="150" y1="442" x2="150" y2="470" stroke="black"/>
<line x1="450" y1="442" x2="450" y2="470" stroke="black"/>
<line x1="750" y1="442" x2="750" y2="470" stroke="black"/>
<line x1="1050" y1="442" x2="1050" y2="470" stroke="black"/>
<line x1="450" y1="453" x2="750" y2="453" stroke="black" stroke-dasharray="2,2"/>
<polygon fill="black" points="750,453 740,459 740,447"/>
<polygon fill="white" points="506,443 693,443 693,452 506,452"/>
<text x="507" y="452" textLength="185" font-family="Helvetica" font-size="12" fill="black">
signature newChannel A: 10, B: 10
</text>
<line x1="150" y1="470" x2="150" y2="498" stroke="black"/>
<line x1="450" y1="470" x2="450" y2="498" stroke="black"/>
<line x1="750" y1="470" x2="750" y2="498" stroke="black"/>
<line x1="1050" y1="470" x2="1050" y2="498" stroke="black"/>
<polygon fill="white" points="608,470 892,470 892,492 608,492"/>
<line x1="608" y1="470" x2="892" y2="470" stroke="black"/>
<line x1="608" y1="492" x2="892" y2="492" stroke="black"/>
<line x1="608" y1="470" x2="608" y2="492" stroke="black"/>
<line x1="892" y1="470" x2="892" y2="492" stroke="black"/>
<polygon fill="white" points="678,477 821,477 821,486 678,486"/>
<text x="679" y="486" textLength="141" font-family="Helvetica" font-size="12" fill="black">
state Creating A: 10, B: 10
</text>
<line x1="150" y1="498" x2="150" y2="526" stroke="black"/>
<line x1="450" y1="498" x2="450" y2="526" stroke="black"/>
<line x1="750" y1="498" x2="750" y2="526" stroke="black"/>
<line x1="1050" y1="498" x2="1050" y2="526" stroke="black"/>
<line x1="750" y1="509" x2="1050" y2="509" stroke="black"/>
<polygon fill="black" points="1050,509 1040,515 1040,503"/>
<polygon fill="white" points="831,499 968,499 968,508 831,508"/>
<text x="832" y="508" textLength="135" font-family="Helvetica" font-size="12" fill="black">
submit closeChannelFast
</text>
<line x1="150" y1="526" x2="150" y2="554" stroke="black"/>
<line x1="450" y1="526" x2="450" y2="554" stroke="black"/>
<line x1="750" y1="526" x2="750" y2="554" stroke="black"/>
<line x1="1050" y1="526" x2="1050" y2="554" stroke="black"/>
<line x1="750" y1="537" x2="1050" y2="537" stroke="black"/>
<polygon fill="black" points="1050,537 1040,543 1040,531"/>
<polygon fill="white" points="813,527 986,527 986,536 813,536"/>
<text x="814" y="536" textLength="171" font-family="Helvetica" font-size="12" fill="black">
submit newChannel A: 10, B: 10
</text>
<line x1="150" y1="554" x2="150" y2="571" stroke="black" stroke-dasharray="2,2"/>
<line x1="450" y1="554" x2="450" y2="571" stroke="black" stroke-dasharray="2,2"/>
<line x1="750" y1="554" x2="750" y2="571" stroke="black" stroke-dasharray="2,2"/>
<line x1="1050" y1="554" x2="1050" y2="571" stroke="black" stroke-dasharray="2,2"/>
<polygon fill="white" points="545,555 653,555 653,564 545,564"/>
<text x="546" y="564" textLength="106" font-family="Helvetica" font-size="12" fill="black">
After some polling...
</text>
<line x1="150" y1="571" x2="150" y2="599" stroke="black"/>
<line x1="450" y1="571" x2="450" y2="599" stroke="black"/>
<line x1="750" y1="571" x2="750" y2="599" stroke="black"/>
<line x1="1050" y1="571" x2="1050" y2="599" stroke="black"/>
<line x1="1050" y1="582" x2="750" y2="582" stroke="black" stroke-dasharray="2,2"/>
<polygon fill="black" points="750,582 760,588 760,576"/>
<polygon fill="white" points="807,572 992,572 992,581 807,581"/>
<text x="808" y="581" textLength="183" font-family="Helvetica" font-size="12" fill="black">
channelOpened event A: 10, B: 10
</text>
<line x1="150" y1="599" x2="150" y2="627" stroke="black"/>
<line x1="450" y1="599" x2="450" y2="627" stroke="black"/>
<line x1="750" y1="599" x2="750" y2="627" stroke="black"/>
<line x1="1050" y1="599" x2="1050" y2="627" stroke="black"/>
<line x1="750" y1="610" x2="450" y2="610" stroke="black"/>
<polygon fill="black" points="450,610 460,616 460,604"/>
<polygon fill="white" points="526,600 673,600 673,609 526,609"/>
<text x="527" y="609" textLength="145" font-family="Helvetica" font-size="12" fill="black">
channelOpened notification
</text>
<line x1="150" y1="627" x2="150" y2="655" stroke="black"/>
<line x1="450" y1="627" x2="450" y2="655" stroke="black"/>
<line x1="750" y1="627" x2="750" y2="655" stroke="black"/>
<line x1="1050" y1="627" x2="1050" y2="655" stroke="black"/>
<line x1="450" y1="638" x2="1050" y2="638" stroke="black"/>
<polygon fill="black" points="1050,638 1040,644 1040,632"/>
<polygon fill="white" points="690,628 809,628 809,637 690,637"/>
<text x="691" y="637" textLength="117" font-family="Helvetica" font-size="12" fill="black">
verify channelOpened
</text>
<line x1="150" y1="655" x2="150" y2="683" stroke="black"/>
<line x1="450" y1="655" x2="450" y2="683" stroke="black"/>
<line x1="750" y1="655" x2="750" y2="683" stroke="black"/>
<line x1="1050" y1="655" x2="1050" y2="683" stroke="black"/>
<line x1="1050" y1="666" x2="450" y2="666" stroke="black" stroke-dasharray="2,2"/>
<polygon fill="black" points="450,666 460,672 460,660"/>
<polygon fill="white" points="683,656 816,656 816,665 683,665"/>
<text x="684" y="665" textLength="131" font-family="Helvetica" font-size="12" fill="black">
channelOpened success
</text>
<line x1="150" y1="683" x2="150" y2="711" stroke="black"/>
<line x1="450" y1="683" x2="450" y2="711" stroke="black"/>
<line x1="750" y1="683" x2="750" y2="711" stroke="black"/>
<line x1="1050" y1="683" x2="1050" y2="711" stroke="black"/>
<polygon fill="white" points="308,683 592,683 592,705 308,705"/>
<line x1="308" y1="683" x2="592" y2="683" stroke="black"/>
<line x1="308" y1="705" x2="592" y2="705" stroke="black"/>
<line x1="308" y1="683" x2="308" y2="705" stroke="black"/>
<line x1="592" y1="683" x2="592" y2="705" stroke="black"/>
<polygon fill="white" points="419,690 480,690 480,699 419,699"/>
<text x="420" y="699" textLength="59" font-family="Helvetica" font-size="12" fill="black">
state Open
</text>
<line x1="150" y1="711" x2="150" y2="739" stroke="black"/>
<line x1="450" y1="711" x2="450" y2="739" stroke="black"/>
<line x1="750" y1="711" x2="750" y2="739" stroke="black"/>
<line x1="1050" y1="711" x2="1050" y2="739" stroke="black"/>
<line x1="450" y1="722" x2="750" y2="722" stroke="black" stroke-dasharray="2,2"/>
<polygon fill="black" points="750,722 740,728 740,716"/>
<polygon fill="white" points="533,712 666,712 666,721 533,721"/>
<text x="534" y="721" textLength="131" font-family="Helvetica" font-size="12" fill="black">
channelOpened success
</text>
<line x1="150" y1="739" x2="150" y2="767" stroke="black"/>
<line x1="450" y1="739" x2="450" y2="767" stroke="black"/>
<line x1="750" y1="739" x2="750" y2="767" stroke="black"/>
<line x1="1050" y1="739" x2="1050" y2="767" stroke="black"/>
<polygon fill="white" points="608,739 892,739 892,761 608,761"/>
<line x1="608" y1="739" x2="892" y2="739" stroke="black"/>
<line x1="608" y1="761" x2="892" y2="761" stroke="black"/>
<line x1="608" y1="739" x2="608" y2="761" stroke="black"/>
<line x1="892" y1="739" x2="892" y2="761" stroke="black"/>
<polygon fill="white" points="719,746 780,746 780,755 719,755"/>
<text x="720" y="755" textLength="59" font-family="Helvetica" font-size="12" fill="black">
state Open
</text>
<line x1="150" y1="767" x2="150" y2="784" stroke="black"/>
<line x1="450" y1="767" x2="450" y2="784" stroke="black"/>
<line x1="750" y1="767" x2="750" y2="784" stroke="black"/>
<line x1="1050" y1="767" x2="1050" y2="784" stroke="black"/>
<line x1="75" y1="772" x2="1125" y2="772" stroke="black" stroke-dasharray="2,2"/>
<polygon fill="white" points="535,768 663,768 663,777 535,777"/>
<text x="536" y="777" textLength="126" font-family="Helvetica" font-size="12" fill="black">
Channel is ready to use
</text>
<line x1="150" y1="778" x2="150" y2="784" stroke="black"/>
<line x1="450" y1="778" x2="450" y2="784" stroke="black"/>
<line x1="750" y1="778" x2="750" y2="784" stroke="black"/>
<line x1="1050" y1="778" x2="1050" y2="784" stroke="black"/>
</svg>
