<!DOCTYPE svg PUBLIC "-//W3C//DTD SVG 1.1//EN"
 "http://www.w3.org/Graphics/SVG/1.1/DTD/svg11.dtd">
<svg version="1.1"
 width="1200px" height="678px"
 viewBox="0 0 1200 678"
 xmlns="http://www.w3.org/2000/svg" shape-rendering="crispEdges"
 stroke-width="1" text-rendering="geometricPrecision">
<polygon fill="white" points="145,7 153,7 153,16 145,16"/>
<text x="150" y="16" textLength="7" font-family="Helvetica" font-size="12" fill="black" text-anchor="middle">

u
</text>
<polygon fill="white" points="445,7 453,7 453,16 445,16"/>
<text x="450" y="16" textLength="7" font-family="Helvetica" font-size="12" fill="black" text-anchor="middle">

a
</text>
<polygon fill="white" points="745,7 753,7 753,16 745,16"/>
<text x="750" y="16" textLength="7" font-family="Helvetica" font-size="12" fill="black" text-anchor="middle">

b
</text>
<polygon fill="white" points="1045,7 1053,7 1053,16 1045,16"/>
<text x="1050" y="16" textLength="6" font-family="Helvetica" font-size="12" fill="black" text-anchor="middle">

c
</text>
<line x1="150" y1="22" x2="150" y2="50" stroke="black"/>
<line x1="450" y1="22" x2="450" y2="50" stroke="black"/>
<line x1="750" y1="22" x2="750" y2="50" stroke="black"/>
<line x1="1050" y1="22" x2="1050" y2="50" stroke="black"/>
<line x1="150" y1="33" x2="450" y2="33" stroke="black"/>
<polygon fill="black" points="450,33 440,39 440,27"/>
<polygon fill="white" points="238,23 361,23 361,32 238,32"/>
<text x="239" y="32" textLength="121" font-family="Helvetica" font-size="12" fill="black">
registerCounterparty B
</text>
<line x1="150" y1="50" x2="150" y2="78" stroke="black"/>
<line x1="450" y1="50" x2="450" y2="78" stroke="black"/>
<line x1="750" y1="50" x2="750" y2="78" stroke="black"/>
<line x1="1050" y1="50" x2="1050" y2="78" stroke="black"/>
<path d="M 750 55 A150,6 0 0,1 750,67" stroke="black" fill="none"/><polygon fill="black" points="750,67 760,73 760,61"/>
<polygon fill="white" points="625,51 748,51 748,60 625,60"/>
<text x="626" y="60" textLength="121" font-family="Helvetica" font-size="12" fill="black">
registerCounterparty A
</text>
<line x1="150" y1="78" x2="150" y2="106" stroke="black"/>
<line x1="450" y1="78" x2="450" y2="106" stroke="black"/>
<line x1="750" y1="78" x2="750" y2="106" stroke="black"/>
<line x1="1050" y1="78" x2="1050" y2="106" stroke="black"/>
<polygon fill="white" points="308,78 592,78 592,100 308,100"/>
<line x1="308" y1="78" x2="592" y2="78" stroke="black"/>
<line x1="308" y1="100" x2="592" y2="100" stroke="black"/>
<line x1="308" y1="78" x2="308" y2="100" stroke="black"/>
<line x1="592" y1="78" x2="592" y2="100" stroke="black"/>
<polygon fill="white" points="422,85 477,85 477,94 422,94"/>
<text x="423" y="94" textLength="53" font-family="Helvetica" font-size="12" fill="black">
state New
</text>
<line x1="150" y1="106" x2="150" y2="134" stroke="black"/>
<line x1="450" y1="106" x2="450" y2="134" stroke="black"/>
<line x1="750" y1="106" x2="750" y2="134" stroke="black"/>
<line x1="1050" y1="106" x2="1050" y2="134" stroke="black"/>
<polygon fill="white" points="608,106 892,106 892,128 608,128"/>
<line x1="608" y1="106" x2="892" y2="106" stroke="black"/>
<line x1="608" y1="128" x2="892" y2="128" stroke="black"/>
<line x1="608" y1="106" x2="608" y2="128" stroke="black"/>
<line x1="892" y1="106" x2="892" y2="128" stroke="black"/>
<polygon fill="white" points="722,113 777,113 777,122 722,122"/>
<text x="723" y="122" textLength="53" font-family="Helvetica" font-size="12" fill="black">
state New
</text>
<line x1="150" y1="134" x2="150" y2="162" stroke="black"/>
<line x1="450" y1="134" x2="450" y2="162" stroke="black"/>
<line x1="750" y1="134" x2="750" y2="162" stroke="black"/>
<line x1="1050" y1="134" x2="1050" y2="162" stroke="black"/>
<line x1="150" y1="145" x2="450" y2="145" stroke="black"/>
<polygon fill="black" points="450,145 440,151 440,139"/>
<polygon fill="white" points="255,135 344,135 344,144 255,144"/>
<text x="256" y="144" textLength="87" font-family="Helvetica" font-size="12" fill="black">
fillChannel B, 10
</text>
<line x1="150" y1="162" x2="150" y2="190" stroke="black"/>
<line x1="450" y1="162" x2="450" y2="190" stroke="black"/>
<line x1="750" y1="162" x2="750" y2="190" stroke="black"/>
<line x1="1050" y1="162" x2="1050" y2="190" stroke="black"/>
<polygon fill="white" points="308,162 592,162 592,184 308,184"/>
<line x1="308" y1="162" x2="592" y2="162" stroke="black"/>
<line x1="308" y1="184" x2="592" y2="184" stroke="black"/>
<line x1="308" y1="162" x2="308" y2="184" stroke="black"/>
<line x1="592" y1="162" x2="592" y2="184" stroke="black"/>
<polygon fill="white" points="377,169 522,169 522,178 377,178"/>
<text x="378" y="178" textLength="143" font-family="Helvetica" font-size="12" fill="black">
state Proposing A: 10, B: 0
</text>
<line x1="150" y1="190" x2="150" y2="218" stroke="black"/>
<line x1="450" y1="190" x2="450" y2="218" stroke="black"/>
<line x1="750" y1="190" x2="750" y2="218" stroke="black"/>
<line x1="1050" y1="190" x2="1050" y2="218" stroke="black"/>
<line x1="450" y1="201" x2="750" y2="201" stroke="black"/>
<polygon fill="black" points="750,201 740,207 740,195"/>
<polygon fill="white" points="512,191 687,191 687,200 512,200"/>
<text x="513" y="200" textLength="173" font-family="Helvetica" font-size="12" fill="black">
propose newChannel A: 10, B: 0
</text>
<line x1="150" y1="218" x2="150" y2="246" stroke="black"/>
<line x1="450" y1="218" x2="450" y2="246" stroke="black"/>
<line x1="750" y1="218" x2="750" y2="246" stroke="black"/>
<line x1="1050" y1="218" x2="1050" y2="246" stroke="black"/>
<polygon fill="white" points="608,218 892,218 892,240 608,240"/>
<line x1="608" y1="218" x2="892" y2="218" stroke="black"/>
<line x1="608" y1="240" x2="892" y2="240" stroke="black"/>
<line x1="608" y1="218" x2="608" y2="240" stroke="black"/>
<line x1="892" y1="218" x2="892" y2="240" stroke="black"/>
<polygon fill="white" points="662,225 837,225 837,234 662,234"/>
<text x="663" y="234" textLength="173" font-family="Helvetica" font-size="12" fill="black">
state OtherProposing A: 10, B: 0
</text>
<line x1="150" y1="246" x2="150" y2="263" stroke="black"/>
<line x1="450" y1="246" x2="450" y2="263" stroke="black"/>
<line x1="750" y1="246" x2="750" y2="263" stroke="black"/>
<line x1="1050" y1="246" x2="1050" y2="263" stroke="black"/>
<line x1="150" y1="263" x2="150" y2="280" stroke="black" stroke-dasharray="2,2"/>
<line x1="450" y1="263" x2="450" y2="280" stroke="black" stroke-dasharray="2,2"/>
<line x1="750" y1="263" x2="750" y2="280" stroke="black" stroke-dasharray="2,2"/>
<line x1="1050" y1="263" x2="1050" y2="280" stroke="black" stroke-dasharray="2,2"/>
<polygon fill="white" points="556,264 643,264 643,273 556,273"/>
<text x="557" y="273" textLength="85" font-family="Helvetica" font-size="12" fill="black">
Propose timer...
</text>
<line x1="150" y1="280" x2="150" y2="308" stroke="black"/>
<line x1="450" y1="280" x2="450" y2="308" stroke="black"/>
<line x1="750" y1="280" x2="750" y2="308" stroke="black"/>
<line x1="1050" y1="280" x2="1050" y2="308" stroke="black"/>
<path d="M 750 285 A150,6 0 0,1 750,297" stroke="black" fill="none"/><polygon fill="black" points="750,297 760,303 760,291"/>
<polygon fill="white" points="659,281 748,281 748,290 659,290"/>
<text x="660" y="290" textLength="87" font-family="Helvetica" font-size="12" fill="black">
fillChannel A, 10
</text>
<line x1="150" y1="308" x2="150" y2="336" stroke="black"/>
<line x1="450" y1="308" x2="450" y2="336" stroke="black"/>
<line x1="750" y1="308" x2="750" y2="336" stroke="black"/>
<line x1="1050" y1="308" x2="1050" y2="336" stroke="black"/>
<line x1="750" y1="319" x2="450" y2="319" stroke="black"/>
<polygon fill="black" points="450,319 460,325 460,313"/>
<polygon fill="white" points="509,309 690,309 690,318 509,318"/>
<text x="510" y="318" textLength="179" font-family="Helvetica" font-size="12" fill="black">
propose newChannel A: 10, B: 10
</text>
<line x1="150" y1="336" x2="150" y2="364" stroke="black"/>
<line x1="450" y1="336" x2="450" y2="364" stroke="black"/>
<line x1="750" y1="336" x2="750" y2="364" stroke="black"/>
<line x1="1050" y1="336" x2="1050" y2="364" stroke="black"/>
<polygon fill="white" points="308,336 592,336 592,358 308,358"/>
<line x1="308" y1="336" x2="592" y2="336" stroke="black"/>
<line x1="308" y1="358" x2="592" y2="358" stroke="black"/>
<line x1="308" y1="336" x2="308" y2="358" stroke="black"/>
<line x1="592" y1="336" x2="592" y2="358" stroke="black"/>
<polygon fill="white" points="363,343 536,343 536,352 363,352"/>
<text x="364" y="352" textLength="171" font-family="Helvetica" font-size="12" fill="black">
state OtherCreating A: 10, B: 10
</text>
<line x1="150" y1="364" x2="150" y2="392" stroke="black"/>
<line x1="450" y1="364" x2="450" y2="392" stroke="black"/>
<line x1="750" y1="364" x2="750" y2="392" stroke="black"/>
<line x1="1050" y1="364" x2="1050" y2="392" stroke="black"/>
<line x1="450" y1="375" x2="750" y2="375" stroke="black" stroke-dasharray="2,2"/>
<polygon fill="black" points="750,375 740,381 740,369"/>
<polygon fill="white" points="506,365 693,365 693,374 506,374"/>
<text x="507" y="374" textLength="185" font-family="Helvetica" font-size="12" fill="black">
signature newChannel A: 10, B: 10
</text>
<line x1="150" y1="392" x2="150" y2="420" stroke="black"/>
<line x1="450" y1="392" x2="450" y2="420" stroke="black"/>
<line x1="750" y1="392" x2="750" y2="420" stroke="black"/>
<line x1="1050" y1="392" x2="1050" y2="420" stroke="black"/>
<polygon fill="white" points="608,392 892,392 892,414 608,414"/>
<line x1="608" y1="392" x2="892" y2="392" stroke="black"/>
<line x1="608" y1="414" x2="892" y2="414" stroke="black"/>
<line x1="608" y1="392" x2="608" y2="414" stroke="black"/>
<line x1="892" y1="392" x2="892" y2="414" stroke="black"/>
<polygon fill="white" points="678,399 821,399 821,408 678,408"/>
<text x="679" y="408" textLength="141" font-family="Helvetica" font-size="12" fill="black">
state Creating A: 10, B: 10
</text>
<line x1="150" y1="420" x2="150" y2="448" stroke="black"/>
<line x1="450" y1="420" x2="450" y2="448" stroke="black"/>
<line x1="750" y1="420" x2="750" y2="448" stroke="black"/>
<line x1="1050" y1="420" x2="1050" y2="448" stroke="black"/>
<line x1="750" y1="431" x2="1050" y2="431" stroke="black"/>
<polygon fill="black" points="1050,431 1040,437 1040,425"/>
<polygon fill="white" points="813,421 986,421 986,430 813,430"/>
<text x="814" y="430" textLength="171" font-family="Helvetica" font-size="12" fill="black">
submit newChannel A: 10, B: 10
</text>
<line x1="150" y1="448" x2="150" y2="465" stroke="black" stroke-dasharray="2,2"/>
<line x1="450" y1="448" x2="450" y2="465" stroke="black" stroke-dasharray="2,2"/>
<line x1="750" y1="448" x2="750" y2="465" stroke="black" stroke-dasharray="2,2"/>
<line x1="1050" y1="448" x2="1050" y2="465" stroke="black" stroke-dasharray="2,2"/>
<polygon fill="white" points="545,449 653,449 653,458 545,458"/>
<text x="546" y="458" textLength="106" font-family="Helvetica" font-size="12" fill="black">
After some polling...
</text>
<line x1="150" y1="465" x2="150" y2="493" stroke="black"/>
<line x1="450" y1="465" x2="450" y2="493" stroke="black"/>
<line x1="750" y1="465" x2="750" y2="493" stroke="black"/>
<line x1="1050" y1="465" x2="1050" y2="493" stroke="black"/>
<line x1="1050" y1="476" x2="750" y2="476" stroke="black" stroke-dasharray="2,2"/>
<polygon fill="black" points="750,476 760,482 760,470"/>
<polygon fill="white" points="807,466 992,466 992,475 807,475"/>
<text x="808" y="475" textLength="183" font-family="Helvetica" font-size="12" fill="black">
channelOpened event A: 10, B: 10
</text>
<line x1="150" y1="493" x2="150" y2="521" stroke="black"/>
<line x1="450" y1="493" x2="450" y2="521" stroke="black"/>
<line x1="750" y1="493" x2="750" y2="521" stroke="black"/>
<line x1="1050" y1="493" x2="1050" y2="521" stroke="black"/>
<line x1="750" y1="504" x2="450" y2="504" stroke="black"/>
<polygon fill="black" points="450,504 460,510 460,498"/>
<polygon fill="white" points="526,494 673,494 673,503 526,503"/>
<text x="527" y="503" textLength="145" font-family="Helvetica" font-size="12" fill="black">
channelOpened notification
</text>
<line x1="150" y1="521" x2="150" y2="549" stroke="black"/>
<line x1="450" y1="521" x2="450" y2="549" stroke="black"/>
<line x1="750" y1="521" x2="750" y2="549" stroke="black"/>
<line x1="1050" y1="521" x2="1050" y2="549" stroke="black"/>
<line x1="450" y1="532" x2="1050" y2="532" stroke="black"/>
<polygon fill="black" points="1050,532 1040,538 1040,526"/>
<polygon fill="white" points="690,522 809,522 809,531 690,531"/>
<text x="691" y="531" textLength="117" font-family="Helvetica" font-size="12" fill="black">
verify channelOpened
</text>
<line x1="150" y1="549" x2="150" y2="577" stroke="black"/>
<line x1="450" y1="549" x2="450" y2="577" stroke="black"/>
<line x1="750" y1="549" x2="750" y2="577" stroke="black"/>
<line x1="1050" y1="549" x2="1050" y2="577" stroke="black"/>
<line x1="1050" y1="560" x2="450" y2="560" stroke="black" stroke-dasharray="2,2"/>
<polygon fill="black" points="450,560 460,566 460,554"/>
<polygon fill="white" points="683,550 816,550 816,559 683,559"/>
<text x="684" y="559" textLength="131" font-family="Helvetica" font-size="12" fill="black">
channelOpened success
</text>
<line x1="150" y1="577" x2="150" y2="605" stroke="black"/>
<line x1="450" y1="577" x2="450" y2="605" stroke="black"/>
<line x1="750" y1="577" x2="750" y2="605" stroke="black"/>
<line x1="1050" y1="577" x2="1050" y2="605" stroke="black"/>
<polygon fill="white" points="308,577 592,577 592,599 308,599"/>
<line x1="308" y1="577" x2="592" y2="577" stroke="black"/>
<line x1="308" y1="599" x2="592" y2="599" stroke="black"/>
<line x1="308" y1="577" x2="308" y2="599" stroke="black"/>
<line x1="592" y1="577" x2="592" y2="599" stroke="black"/>
<polygon fill="white" points="419,584 480,584 480,593 419,593"/>
<text x="420" y="593" textLength="59" font-family="Helvetica" font-size="12" fill="black">
state Open
</text>
<line x1="150" y1="605" x2="150" y2="633" stroke="black"/>
<line x1="450" y1="605" x2="450" y2="633" stroke="black"/>
<line x1="750" y1="605" x2="750" y2="633" stroke="black"/>
<line x1="1050" y1="605" x2="1050" y2="633" stroke="black"/>
<line x1="450" y1="616" x2="750" y2="616" stroke="black" stroke-dasharray="2,2"/>
<polygon fill="black" points="750,616 740,622 740,610"/>
<polygon fill="white" points="533,606 666,606 666,615 533,615"/>
<text x="534" y="615" textLength="131" font-family="Helvetica" font-size="12" fill="black">
channelOpened success
</text>
<line x1="150" y1="633" x2="150" y2="661" stroke="black"/>
<line x1="450" y1="633" x2="450" y2="661" stroke="black"/>
<line x1="750" y1="633" x2="750" y2="661" stroke="black"/>
<line x1="1050" y1="633" x2="1050" y2="661" stroke="black"/>
<polygon fill="white" points="608,633 892,633 892,655 608,655"/>
<line x1="608" y1="633" x2="892" y2="633" stroke="black"/>
<line x1="608" y1="655" x2="892" y2="655" stroke="black"/>
<line x1="608" y1="633" x2="608" y2="655" stroke="black"/>
<line x1="892" y1="633" x2="892" y2="655" stroke="black"/>
<polygon fill="white" points="719,640 780,640 780,649 719,649"/>
<text x="720" y="649" textLength="59" font-family="Helvetica" font-size="12" fill="black">
state Open
</text>
<line x1="150" y1="661" x2="150" y2="678" stroke="black"/>
<line x1="450" y1="661" x2="450" y2="678" stroke="black"/>
<line x1="750" y1="661" x2="750" y2="678" stroke="black"/>
<line x1="1050" y1="661" x2="1050" y2="678" stroke="black"/>
<line x1="75" y1="666" x2="1125" y2="666" stroke="black" stroke-dasharray="2,2"/>
<polygon fill="white" points="535,662 663,662 663,671 535,671"/>
<text x="536" y="671" textLength="126" font-family="Helvetica" font-size="12" fill="black">
Channel is ready to use
</text>
<line x1="150" y1="672" x2="150" y2="678" stroke="black"/>
<line x1="450" y1="672" x2="450" y2="678" stroke="black"/>
<line x1="750" y1="672" x2="750" y2="678" stroke="black"/>
<line x1="1050" y1="672" x2="1050" y2="678" stroke="black"/>
</svg>
