<?xml version="1.0" encoding="UTF-8" standalone="no"?>
<!DOCTYPE svg PUBLIC "-//W3C//DTD SVG 1.1//EN"
 "http://www.w3.org/Graphics/SVG/1.1/DTD/svg11.dtd">
<!-- Generated by graphviz version 2.40.1 (20161225.0304)
 -->
<!-- Title: G Pages: 1 -->
<svg width="641pt" height="401pt"
 viewBox="0.00 0.00 641.29 400.80" xmlns="http://www.w3.org/2000/svg" xmlns:xlink="http://www.w3.org/1999/xlink">
<g id="graph0" class="graph" transform="scale(1 1) rotate(0) translate(14.4 386.4)">
<title>G</title>
<polygon fill="#ffffff" stroke="transparent" points="-14.4,14.4 -14.4,-386.4 626.8937,-386.4 626.8937,14.4 -14.4,14.4"/>
<!-- New -->
<g id="node1" class="node">
<title>New</title>
<ellipse fill="none" stroke="#000000" cx="235.4937" cy="-354" rx="27.0966" ry="18"/>
<text text-anchor="middle" x="235.4937" y="-350.3" font-family="Times,serif" font-size="14.00" fill="#000000">New</text>
</g>
<!-- OtherCreating -->
<g id="node2" class="node">
<title>OtherCreating</title>
<ellipse fill="none" stroke="#000000" cx="143.4937" cy="-237" rx="61.1893" ry="18"/>
<text text-anchor="middle" x="143.4937" y="-233.3" font-family="Times,serif" font-size="14.00" fill="#000000">OtherCreating</text>
</g>
<!-- New&#45;&gt;OtherCreating -->
<g id="edge1" class="edge">
<title>New&#45;&gt;OtherCreating</title>
<path fill="none" stroke="#000000" d="M209.4621,-348.1246C192.6859,-342.9807 171.7843,-333.7801 159.4937,-318 148.0054,-303.25 144.0701,-282.5039 142.9737,-265.7005"/>
<polygon fill="#000000" stroke="#000000" points="146.4585,-265.2022 142.6122,-255.3302 139.4628,-265.4461 146.4585,-265.2022"/>
<text text-anchor="middle" x="224.4937" y="-306.8" font-family="Times,serif" font-size="14.00" fill="#000000">from counterparty:</text>
<text text-anchor="middle" x="224.4937" y="-291.8" font-family="Times,serif" font-size="14.00" fill="#000000">proposeChannel</text>
<text text-anchor="middle" x="224.4937" y="-276.8" font-family="Times,serif" font-size="14.00" fill="#000000">out: sig on newChannel</text>
</g>
<!-- Creating -->
<g id="node3" class="node">
<title>Creating</title>
<ellipse fill="none" stroke="#000000" cx="324.4937" cy="-237" rx="40.8928" ry="18"/>
<text text-anchor="middle" x="324.4937" y="-233.3" font-family="Times,serif" font-size="14.00" fill="#000000">Creating</text>
</g>
<!-- New&#45;&gt;Creating -->
<g id="edge2" class="edge">
<title>New&#45;&gt;Creating</title>
<path fill="none" stroke="#000000" d="M258.3877,-344.1936C270.2342,-338.1306 284.1346,-329.3302 293.4937,-318 306.12,-302.7144 313.9588,-281.7244 318.5947,-264.9419"/>
<polygon fill="#000000" stroke="#000000" points="322.0187,-265.678 321.0814,-255.1247 315.233,-263.9591 322.0187,-265.678"/>
<text text-anchor="middle" x="383.4937" y="-306.8" font-family="Times,serif" font-size="14.00" fill="#000000">from counterparty:</text>
<text text-anchor="middle" x="383.4937" y="-291.8" font-family="Times,serif" font-size="14.00" fill="#000000">sig on newChannel</text>
<text text-anchor="middle" x="383.4937" y="-276.8" font-family="Times,serif" font-size="14.00" fill="#000000">out: submit newChannel</text>
</g>
<!-- Open -->
<g id="node4" class="node">
<title>Open</title>
<ellipse fill="none" stroke="#000000" cx="220.4937" cy="-135" rx="29.795" ry="18"/>
<text text-anchor="middle" x="220.4937" y="-131.3" font-family="Times,serif" font-size="14.00" fill="#000000">Open</text>
</g>
<!-- OtherCreating&#45;&gt;Open -->
<g id="edge4" class="edge">
<title>OtherCreating&#45;&gt;Open</title>
<path fill="none" stroke="#000000" d="M125.9366,-219.4653C114.1908,-205.5566 102.6963,-186.0249 113.4937,-171 121.7595,-159.4978 154.7993,-149.5083 182.0039,-142.9897"/>
<polygon fill="#000000" stroke="#000000" points="183.1233,-146.3235 192.0808,-140.6655 181.55,-139.5026 183.1233,-146.3235"/>
<text text-anchor="middle" x="209.9937" y="-189.8" font-family="Times,serif" font-size="14.00" fill="#000000">from blockchain:</text>
<text text-anchor="middle" x="209.9937" y="-174.8" font-family="Times,serif" font-size="14.00" fill="#000000">verfied channelOpened notification</text>
</g>
<!-- Creating&#45;&gt;Open -->
<g id="edge3" class="edge">
<title>Creating&#45;&gt;Open</title>
<path fill="none" stroke="#000000" d="M323.7766,-218.7255C322.2926,-204.2063 318.0881,-184.2115 306.4937,-171 294.3809,-157.1979 276.1135,-148.5588 259.5256,-143.2172"/>
<polygon fill="#000000" stroke="#000000" points="260.0638,-139.7289 249.4844,-140.3007 258.1113,-146.4511 260.0638,-139.7289"/>
<text text-anchor="middle" x="436.9937" y="-189.8" font-family="Times,serif" font-size="14.00" fill="#000000">from counterparty:</text>
<text text-anchor="middle" x="436.9937" y="-174.8" font-family="Times,serif" font-size="14.00" fill="#000000">ok response to channelOpened notification</text>
</g>
<!-- OtherReDrawing -->
<g id="node5" class="node">
<title>OtherReDrawing</title>
<ellipse fill="none" stroke="#000000" cx="71.4937" cy="-18" rx="71.4873" ry="18"/>
<text text-anchor="middle" x="71.4937" y="-14.3" font-family="Times,serif" font-size="14.00" fill="#000000">OtherReDrawing</text>
</g>
<!-- Open&#45;&gt;OtherReDrawing -->
<g id="edge5" class="edge">
<title>Open&#45;&gt;OtherReDrawing</title>
<path fill="none" stroke="#000000" d="M190.9779,-132.0671C135.7037,-126.2761 21.087,-112.7389 9.4937,-99 -3.4045,-83.7148 -.485,-71.3328 9.4937,-54 12.915,-48.0571 17.7353,-43.0047 23.194,-38.7349"/>
<polygon fill="#000000" stroke="#000000" points="25.2722,-41.554 31.5597,-33.0265 21.3267,-35.7719 25.2722,-41.554"/>
<text text-anchor="middle" x="60.9937" y="-87.8" font-family="Times,serif" font-size="14.00" fill="#000000">from counterparty:</text>
<text text-anchor="middle" x="60.9937" y="-72.8" font-family="Times,serif" font-size="14.00" fill="#000000">proposeRedraw</text>
<text text-anchor="middle" x="60.9937" y="-57.8" font-family="Times,serif" font-size="14.00" fill="#000000">out: sig on reDraw</text>
</g>
<!-- ReDrawing -->
<g id="node6" class="node">
<title>ReDrawing</title>
<ellipse fill="none" stroke="#000000" cx="371.4937" cy="-18" rx="51.1914" ry="18"/>
<text text-anchor="middle" x="371.4937" y="-14.3" font-family="Times,serif" font-size="14.00" fill="#000000">ReDrawing</text>
</g>
<!-- Open&#45;&gt;ReDrawing -->
<g id="edge6" class="edge">
<title>Open&#45;&gt;ReDrawing</title>
<path fill="none" stroke="#000000" d="M245.5704,-125.1013C258.4305,-119.0589 273.6293,-110.3067 284.4937,-99 300.056,-82.8041 291.9313,-70.1959 307.4937,-54 313.7829,-47.4547 321.5247,-41.7654 329.4244,-36.9623"/>
<polygon fill="#000000" stroke="#000000" points="331.3613,-39.8879 338.3416,-31.9176 327.9145,-33.7953 331.3613,-39.8879"/>
<text text-anchor="middle" x="360.9937" y="-87.8" font-family="Times,serif" font-size="14.00" fill="#000000">from counterparty:</text>
<text text-anchor="middle" x="360.9937" y="-72.8" font-family="Times,serif" font-size="14.00" fill="#000000">sig on reDraw</text>
<text text-anchor="middle" x="360.9937" y="-57.8" font-family="Times,serif" font-size="14.00" fill="#000000">out: submit reDraw</text>
</g>
<!-- OtherReDrawing&#45;&gt;Open -->
<g id="edge8" class="edge">
<title>OtherReDrawing&#45;&gt;Open</title>
<path fill="none" stroke="#000000" d="M94.2493,-35.2937C100.6355,-40.8255 107.2574,-47.2722 112.4937,-54 126.2891,-71.7251 119.051,-83.6986 135.4937,-99 148.7067,-111.2959 166.7454,-119.7406 182.8064,-125.3429"/>
<polygon fill="#000000" stroke="#000000" points="181.8985,-128.7276 192.4903,-128.4727 184.0513,-122.0669 181.8985,-128.7276"/>
<text text-anchor="middle" x="209.9937" y="-80.3" font-family="Times,serif" font-size="14.00" fill="#000000">from blockchain:</text>
<text text-anchor="middle" x="209.9937" y="-65.3" font-family="Times,serif" font-size="14.00" fill="#000000">verfied reDraw notification</text>
</g>
<!-- ReDrawing&#45;&gt;Open -->
<g id="edge7" class="edge">
<title>ReDrawing&#45;&gt;Open</title>
<path fill="none" stroke="#000000" d="M397.6098,-33.7651C404.3707,-39.254 410.786,-46.0605 414.4937,-54 422.9561,-72.1215 427.2807,-83.6218 414.4937,-99 395.3357,-122.0401 311.7607,-130.4022 260.7594,-133.3877"/>
<polygon fill="#000000" stroke="#000000" points="260.5103,-129.896 250.714,-133.9313 260.8885,-136.8858 260.5103,-129.896"/>
<text text-anchor="middle" x="517.4937" y="-80.3" font-family="Times,serif" font-size="14.00" fill="#000000">from counterparty:</text>
<text text-anchor="middle" x="517.4937" y="-65.3" font-family="Times,serif" font-size="14.00" fill="#000000">ok response to reDraw notification</text>
</g>
</g>
</svg>
