<?xml version="1.0" encoding="UTF-8" standalone="no"?>
<!DOCTYPE svg PUBLIC "-//W3C//DTD SVG 1.1//EN"
 "http://www.w3.org/Graphics/SVG/1.1/DTD/svg11.dtd">
<!-- Generated by graphviz version 2.40.1 (20161225.0304)
 -->
<!-- Title: G Pages: 1 -->
<svg width="379pt" height="514pt"
 viewBox="0.00 0.00 378.77 513.72" xmlns="http://www.w3.org/2000/svg" xmlns:xlink="http://www.w3.org/1999/xlink">
<g id="graph0" class="graph" transform="scale(1 1) rotate(0) translate(14.4 499.3239)">
<title>G</title>
<polygon fill="#ffffff" stroke="transparent" points="-14.4,14.4 -14.4,-499.3239 364.3741,-499.3239 364.3741,14.4 -14.4,14.4"/>
<!-- Legend -->
<g id="node1" class="node">
<title>Legend</title>
<ellipse fill="none" stroke="#000000" cx="86.9741" cy="-438.9619" rx="86.9483" ry="45.9239"/>
<text text-anchor="start" x="47.4741" y="-454.7619" font-family="Times,serif" font-weight="bold" font-size="14.00" fill="#000000">Color Legend</text>
<text text-anchor="start" x="58.9741" y="-434.7619" font-family="Times,serif" font-size="14.00" fill="#0000ff">From user</text>
<text text-anchor="start" x="35.9741" y="-415.7619" font-family="Times,serif" font-size="14.00" fill="#ff0000">From counterparty</text>
</g>
<!-- New -->
<g id="node2" class="node">
<title>New</title>
<ellipse fill="none" stroke="#000000" cx="218.9741" cy="-438.9619" rx="27.0966" ry="18"/>
<text text-anchor="middle" x="218.9741" y="-435.2619" font-family="Times,serif" font-size="14.00" fill="#000000">New</text>
</g>
<!-- Proposing -->
<g id="node3" class="node">
<title>Proposing</title>
<ellipse fill="none" stroke="#000000" cx="164.9741" cy="-324" rx="46.2923" ry="18"/>
<text text-anchor="middle" x="164.9741" y="-320.3" font-family="Times,serif" font-size="14.00" fill="#000000">Proposing</text>
</g>
<!-- New&#45;&gt;Proposing -->
<g id="edge1" class="edge">
<title>New&#45;&gt;Proposing</title>
<path fill="none" stroke="#000000" d="M210.0144,-421.7168C203.4455,-408.9167 194.4134,-390.9854 186.9741,-375 183.4268,-367.3776 179.744,-359.0317 176.4293,-351.3391"/>
<polygon fill="#000000" stroke="#000000" points="179.609,-349.8728 172.4656,-342.0483 173.1705,-352.6197 179.609,-349.8728"/>
<text text-anchor="middle" x="217.4741" y="-363.8" font-family="Times,serif" font-size="14.00" fill="#0000ff">fillChannel</text>
</g>
<!-- OtherCreating -->
<g id="node4" class="node">
<title>OtherCreating</title>
<ellipse fill="none" stroke="#000000" cx="161.9741" cy="-18" rx="61.1893" ry="18"/>
<text text-anchor="middle" x="161.9741" y="-14.3" font-family="Times,serif" font-size="14.00" fill="#000000">OtherCreating</text>
</g>
<!-- New&#45;&gt;OtherCreating -->
<g id="edge2" class="edge">
<title>New&#45;&gt;OtherCreating</title>
<path fill="none" stroke="#000000" d="M229.6034,-422.1698C242.3369,-400.4054 261.9741,-360.8648 261.9741,-324 261.9741,-324 261.9741,-324 261.9741,-120 261.9741,-89.3494 262.2097,-77.0213 241.9741,-54 234.9638,-46.0246 225.8384,-39.7232 216.2699,-34.7755"/>
<polygon fill="#000000" stroke="#000000" points="217.5547,-31.5124 207.0147,-30.4361 214.5831,-37.8503 217.5547,-31.5124"/>
<text text-anchor="middle" x="305.9741" y="-225.8" font-family="Times,serif" font-size="14.00" fill="#ff0000">acceptable</text>
<text text-anchor="middle" x="305.9741" y="-210.8" font-family="Times,serif" font-size="14.00" fill="#ff0000">proposeChannel</text>
</g>
<!-- Creating -->
<g id="node5" class="node">
<title>Creating</title>
<ellipse fill="none" stroke="#000000" cx="69.9741" cy="-222" rx="40.8928" ry="18"/>
<text text-anchor="middle" x="69.9741" y="-218.3" font-family="Times,serif" font-size="14.00" fill="#000000">Creating</text>
</g>
<!-- Proposing&#45;&gt;Creating -->
<g id="edge3" class="edge">
<title>Proposing&#45;&gt;Creating</title>
<path fill="none" stroke="#000000" d="M124.9745,-314.9516C109.7129,-309.5551 93.4775,-301.1009 82.9741,-288 74.5276,-277.4646 71.0591,-262.9823 69.7948,-250.2675"/>
<polygon fill="#000000" stroke="#000000" points="73.2794,-249.9023 69.1904,-240.1283 66.2918,-250.3189 73.2794,-249.9023"/>
<text text-anchor="middle" x="116.9741" y="-276.8" font-family="Times,serif" font-size="14.00" fill="#ff0000">acceptable</text>
<text text-anchor="middle" x="116.9741" y="-261.8" font-family="Times,serif" font-size="14.00" fill="#ff0000">newChannel</text>
</g>
<!-- Open -->
<g id="node6" class="node">
<title>Open</title>
<ellipse fill="none" stroke="#000000" cx="112.9741" cy="-120" rx="29.795" ry="18"/>
<text text-anchor="middle" x="112.9741" y="-116.3" font-family="Times,serif" font-size="14.00" fill="#000000">Open</text>
</g>
<!-- OtherCreating&#45;&gt;Open -->
<g id="edge4" class="edge">
<title>OtherCreating&#45;&gt;Open</title>
<path fill="none" stroke="#000000" d="M157.661,-35.9983C153.9981,-49.637 148.0461,-68.5941 139.9741,-84 137.9346,-87.8926 135.4878,-91.8126 132.9112,-95.5601"/>
<polygon fill="#000000" stroke="#000000" points="129.8879,-93.7641 126.7939,-103.8971 135.5317,-97.9052 129.8879,-93.7641"/>
<text text-anchor="middle" x="195.4741" y="-72.8" font-family="Times,serif" font-size="14.00" fill="#ff0000">channelOpened</text>
<text text-anchor="middle" x="195.4741" y="-57.8" font-family="Times,serif" font-size="14.00" fill="#ff0000">notification</text>
</g>
<!-- Creating&#45;&gt;Open -->
<g id="edge5" class="edge">
<title>Creating&#45;&gt;Open</title>
<path fill="none" stroke="#000000" d="M64.2144,-203.9536C60.8676,-190.1169 58.6058,-170.9253 65.9741,-156 69.5572,-148.7421 75.3834,-142.5429 81.7336,-137.4378"/>
<polygon fill="#000000" stroke="#000000" points="83.8428,-140.2323 89.928,-131.5593 79.7624,-134.5445 83.8428,-140.2323"/>
<text text-anchor="middle" x="108.4741" y="-174.8" font-family="Times,serif" font-size="14.00" fill="#ff0000">channelOpened</text>
<text text-anchor="middle" x="108.4741" y="-159.8" font-family="Times,serif" font-size="14.00" fill="#ff0000">confirmation</text>
</g>
<!-- Open&#45;&gt;Proposing -->
<g id="edge7" class="edge">
<title>Open&#45;&gt;Proposing</title>
<path fill="none" stroke="#000000" d="M132.5286,-133.6515C139.5715,-139.6522 146.8034,-147.3168 150.9741,-156 172.6424,-201.1121 171.6103,-260.9128 168.5358,-295.6529"/>
<polygon fill="#000000" stroke="#000000" points="165.0133,-295.7004 167.492,-306.0012 171.978,-296.4029 165.0133,-295.7004"/>
<text text-anchor="middle" x="199.4741" y="-218.3" font-family="Times,serif" font-size="14.00" fill="#0000ff">fillChannel</text>
</g>
<!-- Open&#45;&gt;OtherCreating -->
<g id="edge6" class="edge">
<title>Open&#45;&gt;OtherCreating</title>
<path fill="none" stroke="#000000" d="M85.7628,-112.2806C71.8497,-106.8009 56.1606,-97.8922 47.9741,-84 41.2049,-72.5128 40.0924,-64.7544 47.9741,-54 54.8447,-44.6253 77.5239,-36.5628 100.864,-30.4588"/>
<polygon fill="#000000" stroke="#000000" points="102.0076,-33.7808 110.8632,-27.9645 100.3134,-26.9889 102.0076,-33.7808"/>
<text text-anchor="middle" x="91.9741" y="-72.8" font-family="Times,serif" font-size="14.00" fill="#ff0000">acceptable</text>
<text text-anchor="middle" x="91.9741" y="-57.8" font-family="Times,serif" font-size="14.00" fill="#ff0000">proposeChannel</text>
</g>
</g>
</svg>
