<?xml version="1.0" encoding="UTF-8" standalone="no"?>
<!DOCTYPE svg PUBLIC "-//W3C//DTD SVG 1.1//EN"
 "http://www.w3.org/Graphics/SVG/1.1/DTD/svg11.dtd">
<!-- Generated by graphviz version 2.40.1 (20161225.0304)
 -->
<!-- Title: G Pages: 1 -->
<svg width="490pt" height="616pt"
 viewBox="0.00 0.00 489.51 615.72" xmlns="http://www.w3.org/2000/svg" xmlns:xlink="http://www.w3.org/1999/xlink">
<g id="graph0" class="graph" transform="scale(1 1) rotate(0) translate(14.4 601.3239)">
<title>G</title>
<polygon fill="#ffffff" stroke="transparent" points="-14.4,14.4 -14.4,-601.3239 475.1147,-601.3239 475.1147,14.4 -14.4,14.4"/>
<!-- Legend -->
<g id="node1" class="node">
<title>Legend</title>
<ellipse fill="none" stroke="#000000" cx="124.7147" cy="-540.9619" rx="86.9483" ry="45.9239"/>
<text text-anchor="start" x="85.2147" y="-556.7619" font-family="Times,serif" font-weight="bold" font-size="14.00" fill="#000000">Color Legend</text>
<text text-anchor="start" x="96.7147" y="-536.7619" font-family="Times,serif" font-size="14.00" fill="#0000ff">From user</text>
<text text-anchor="start" x="73.7147" y="-517.7619" font-family="Times,serif" font-size="14.00" fill="#ff0000">From counterparty</text>
</g>
<!-- New -->
<g id="node2" class="node">
<title>New</title>
<ellipse fill="none" stroke="#000000" cx="256.7147" cy="-540.9619" rx="27.0966" ry="18"/>
<text text-anchor="middle" x="256.7147" y="-537.2619" font-family="Times,serif" font-size="14.00" fill="#000000">New</text>
</g>
<!-- Proposing -->
<g id="node3" class="node">
<title>Proposing</title>
<ellipse fill="none" stroke="#000000" cx="159.7147" cy="-426" rx="46.2923" ry="18"/>
<text text-anchor="middle" x="159.7147" y="-422.3" font-family="Times,serif" font-size="14.00" fill="#000000">Proposing</text>
</g>
<!-- New&#45;&gt;Proposing -->
<g id="edge1" class="edge">
<title>New&#45;&gt;Proposing</title>
<path fill="none" stroke="#000000" d="M246.3453,-524.0187C239.8889,-514.5407 230.8889,-503.0503 220.7147,-495 205.7438,-483.1544 195.0428,-490.6677 181.7147,-477 175.4926,-470.6194 170.8957,-462.1987 167.5615,-454.0426"/>
<polygon fill="#000000" stroke="#000000" points="170.7667,-452.6115 164.0965,-444.38 164.1775,-454.9745 170.7667,-452.6115"/>
<text text-anchor="middle" x="212.2147" y="-465.8" font-family="Times,serif" font-size="14.00" fill="#0000ff">fillChannel</text>
</g>
<!-- OtherProposing -->
<g id="node4" class="node">
<title>OtherProposing</title>
<ellipse fill="none" stroke="#000000" cx="267.7147" cy="-120" rx="66.0889" ry="18"/>
<text text-anchor="middle" x="267.7147" y="-116.3" font-family="Times,serif" font-size="14.00" fill="#000000">OtherProposing</text>
</g>
<!-- New&#45;&gt;OtherProposing -->
<g id="edge2" class="edge">
<title>New&#45;&gt;OtherProposing</title>
<path fill="none" stroke="#000000" d="M256.7147,-522.6441C256.7147,-499.958 256.7147,-460.1293 256.7147,-426 256.7147,-426 256.7147,-426 256.7147,-222 256.7147,-196.8225 260.0686,-168.3496 263.0726,-147.8975"/>
<polygon fill="#000000" stroke="#000000" points="266.535,-148.4085 264.5919,-137.9934 259.616,-147.3471 266.535,-148.4085"/>
<text text-anchor="middle" x="300.7147" y="-327.8" font-family="Times,serif" font-size="14.00" fill="#ff0000">unacceptable</text>
<text text-anchor="middle" x="300.7147" y="-312.8" font-family="Times,serif" font-size="14.00" fill="#ff0000">proposeChannel</text>
</g>
<!-- OtherCreating -->
<g id="node5" class="node">
<title>OtherCreating</title>
<ellipse fill="none" stroke="#000000" cx="182.7147" cy="-18" rx="61.1893" ry="18"/>
<text text-anchor="middle" x="182.7147" y="-14.3" font-family="Times,serif" font-size="14.00" fill="#000000">OtherCreating</text>
</g>
<!-- New&#45;&gt;OtherCreating -->
<g id="edge3" class="edge">
<title>New&#45;&gt;OtherCreating</title>
<path fill="none" stroke="#000000" d="M279.6325,-530.9066C313.4385,-514.3375 372.7147,-477.887 372.7147,-426 372.7147,-426 372.7147,-426 372.7147,-120 372.7147,-62.6385 304.6581,-37.4021 250.0076,-26.3841"/>
<polygon fill="#000000" stroke="#000000" points="250.4548,-22.9067 239.9786,-24.4877 249.1541,-29.7848 250.4548,-22.9067"/>
<text text-anchor="middle" x="416.7147" y="-276.8" font-family="Times,serif" font-size="14.00" fill="#ff0000">acceptable</text>
<text text-anchor="middle" x="416.7147" y="-261.8" font-family="Times,serif" font-size="14.00" fill="#ff0000">proposeChannel</text>
</g>
<!-- Creating -->
<g id="node6" class="node">
<title>Creating</title>
<ellipse fill="none" stroke="#000000" cx="64.7147" cy="-324" rx="40.8928" ry="18"/>
<text text-anchor="middle" x="64.7147" y="-320.3" font-family="Times,serif" font-size="14.00" fill="#000000">Creating</text>
</g>
<!-- Proposing&#45;&gt;Creating -->
<g id="edge5" class="edge">
<title>Proposing&#45;&gt;Creating</title>
<path fill="none" stroke="#000000" d="M119.715,-416.9516C104.4534,-411.5551 88.218,-403.1009 77.7147,-390 69.2681,-379.4646 65.7996,-364.9823 64.5353,-352.2675"/>
<polygon fill="#000000" stroke="#000000" points="68.0199,-351.9023 63.9309,-342.1283 61.0323,-352.3189 68.0199,-351.9023"/>
<text text-anchor="middle" x="111.7147" y="-378.8" font-family="Times,serif" font-size="14.00" fill="#ff0000">acceptable</text>
<text text-anchor="middle" x="111.7147" y="-363.8" font-family="Times,serif" font-size="14.00" fill="#ff0000">newChannel</text>
</g>
<!-- OtherProposing&#45;&gt;OtherCreating -->
<g id="edge4" class="edge">
<title>OtherProposing&#45;&gt;OtherCreating</title>
<path fill="none" stroke="#000000" d="M252.9088,-102.233C239.3796,-85.998 219.2187,-61.8049 203.9699,-43.5063"/>
<polygon fill="#000000" stroke="#000000" points="206.4415,-41.005 197.3509,-35.5634 201.0639,-45.4863 206.4415,-41.005"/>
<text text-anchor="middle" x="268.7147" y="-72.8" font-family="Times,serif" font-size="14.00" fill="#ff0000">acceptable</text>
<text text-anchor="middle" x="268.7147" y="-57.8" font-family="Times,serif" font-size="14.00" fill="#ff0000">newChannel</text>
</g>
<!-- Open -->
<g id="node7" class="node">
<title>Open</title>
<ellipse fill="none" stroke="#000000" cx="98.7147" cy="-222" rx="29.795" ry="18"/>
<text text-anchor="middle" x="98.7147" y="-218.3" font-family="Times,serif" font-size="14.00" fill="#000000">Open</text>
</g>
<!-- OtherCreating&#45;&gt;Open -->
<g id="edge6" class="edge">
<title>OtherCreating&#45;&gt;Open</title>
<path fill="none" stroke="#000000" d="M161.0406,-35.0896C143.2801,-50.4878 119.2612,-74.8307 107.7147,-102 95.2581,-131.3107 94.4453,-168.2646 95.8262,-193.3658"/>
<polygon fill="#000000" stroke="#000000" points="92.3578,-193.9385 96.5527,-203.6675 99.3404,-193.446 92.3578,-193.9385"/>
<text text-anchor="middle" x="150.2147" y="-123.8" font-family="Times,serif" font-size="14.00" fill="#ff0000">channelOpened</text>
<text text-anchor="middle" x="150.2147" y="-108.8" font-family="Times,serif" font-size="14.00" fill="#ff0000">notification</text>
</g>
<!-- Creating&#45;&gt;Open -->
<g id="edge7" class="edge">
<title>Creating&#45;&gt;Open</title>
<path fill="none" stroke="#000000" d="M59.3371,-305.8749C56.2651,-292.1698 54.183,-273.1851 60.7147,-258 63.153,-252.3311 66.9716,-247.1366 71.2665,-242.5637"/>
<polygon fill="#000000" stroke="#000000" points="73.9062,-244.8855 78.7848,-235.4807 69.1061,-239.7904 73.9062,-244.8855"/>
<text text-anchor="middle" x="103.2147" y="-276.8" font-family="Times,serif" font-size="14.00" fill="#ff0000">channelOpened</text>
<text text-anchor="middle" x="103.2147" y="-261.8" font-family="Times,serif" font-size="14.00" fill="#ff0000">confirmation</text>
</g>
<!-- Open&#45;&gt;Proposing -->
<g id="edge10" class="edge">
<title>Open&#45;&gt;Proposing</title>
<path fill="none" stroke="#000000" d="M121.3578,-233.7688C130.508,-239.745 140.1941,-247.8984 145.7147,-258 169.8822,-302.2225 167.8728,-362.9596 163.9667,-397.9893"/>
<polygon fill="#000000" stroke="#000000" points="160.4842,-397.6323 162.7204,-407.9885 167.4304,-398.4982 160.4842,-397.6323"/>
<text text-anchor="middle" x="196.2147" y="-320.3" font-family="Times,serif" font-size="14.00" fill="#0000ff">fillChannel</text>
</g>
<!-- Open&#45;&gt;OtherProposing -->
<g id="edge8" class="edge">
<title>Open&#45;&gt;OtherProposing</title>
<path fill="none" stroke="#000000" d="M109.1291,-205.0281C119.1035,-190.1101 135.4569,-168.8329 154.7147,-156 169.4672,-146.1693 187.0788,-138.879 203.9575,-133.5324"/>
<polygon fill="#000000" stroke="#000000" points="205.1994,-136.8145 213.7835,-130.6045 203.2004,-130.106 205.1994,-136.8145"/>
<text text-anchor="middle" x="198.7147" y="-174.8" font-family="Times,serif" font-size="14.00" fill="#ff0000">unacceptable</text>
<text text-anchor="middle" x="198.7147" y="-159.8" font-family="Times,serif" font-size="14.00" fill="#ff0000">proposeChannel</text>
</g>
<!-- Open&#45;&gt;OtherCreating -->
<g id="edge9" class="edge">
<title>Open&#45;&gt;OtherCreating</title>
<path fill="none" stroke="#000000" d="M76.559,-209.5954C41.6863,-188.4121 -19.4756,-143.5202 6.7147,-102 31.5788,-62.5821 80.589,-41.2681 120.59,-29.9855"/>
<polygon fill="#000000" stroke="#000000" points="121.5252,-33.3585 130.2822,-27.3948 119.7175,-26.5959 121.5252,-33.3585"/>
<text text-anchor="middle" x="50.7147" y="-123.8" font-family="Times,serif" font-size="14.00" fill="#ff0000">acceptable</text>
<text text-anchor="middle" x="50.7147" y="-108.8" font-family="Times,serif" font-size="14.00" fill="#ff0000">proposeChannel</text>
</g>
</g>
</svg>
