<?xml version="1.0" encoding="UTF-8" standalone="no"?>
<!DOCTYPE svg PUBLIC "-//W3C//DTD SVG 1.1//EN"
 "http://www.w3.org/Graphics/SVG/1.1/DTD/svg11.dtd">
<!-- Generated by graphviz version 2.40.1 (20161225.0304)
 -->
<!-- Title: G Pages: 1 -->
<svg width="428pt" height="518pt"
 viewBox="0.00 0.00 428.05 517.80" xmlns="http://www.w3.org/2000/svg" xmlns:xlink="http://www.w3.org/1999/xlink">
<g id="graph0" class="graph" transform="scale(1 1) rotate(0) translate(14.4 503.4)">
<title>G</title>
<polygon fill="#ffffff" stroke="transparent" points="-14.4,14.4 -14.4,-503.4 413.6457,-503.4 413.6457,14.4 -14.4,14.4"/>
<!-- New -->
<g id="node1" class="node">
<title>New</title>
<ellipse fill="none" stroke="#000000" cx="225.2457" cy="-471" rx="27.0966" ry="18"/>
<text text-anchor="middle" x="225.2457" y="-467.3" font-family="Times,serif" font-size="14.00" fill="#000000">New</text>
</g>
<!-- Proposing -->
<g id="node2" class="node">
<title>Proposing</title>
<ellipse fill="none" stroke="#000000" cx="157.2457" cy="-354" rx="46.2923" ry="18"/>
<text text-anchor="middle" x="157.2457" y="-350.3" font-family="Times,serif" font-size="14.00" fill="#000000">Proposing</text>
</g>
<!-- New&#45;&gt;Proposing -->
<g id="edge1" class="edge">
<title>New&#45;&gt;Proposing</title>
<path fill="none" stroke="#000000" d="M199.6762,-464.3342C184.8134,-459.0102 167.2825,-449.9047 158.2457,-435 148.7954,-419.4134 148.6579,-398.847 150.8257,-382.3384"/>
<polygon fill="#000000" stroke="#000000" points="154.3289,-382.6062 152.5084,-372.169 147.4228,-381.4635 154.3289,-382.6062"/>
<text text-anchor="middle" x="214.7457" y="-423.8" font-family="Times,serif" font-size="14.00" fill="#000000">from user:</text>
<text text-anchor="middle" x="214.7457" y="-408.8" font-family="Times,serif" font-size="14.00" fill="#000000">fillChannel</text>
<text text-anchor="middle" x="214.7457" y="-393.8" font-family="Times,serif" font-size="14.00" fill="#000000">out: proposeChannel</text>
</g>
<!-- OtherProposing -->
<g id="node3" class="node">
<title>OtherProposing</title>
<ellipse fill="none" stroke="#000000" cx="293.2457" cy="-354" rx="66.0889" ry="18"/>
<text text-anchor="middle" x="293.2457" y="-350.3" font-family="Times,serif" font-size="14.00" fill="#000000">OtherProposing</text>
</g>
<!-- New&#45;&gt;OtherProposing -->
<g id="edge2" class="edge">
<title>New&#45;&gt;OtherProposing</title>
<path fill="none" stroke="#000000" d="M246.1029,-458.9494C255.0312,-452.8245 264.8524,-444.6321 271.2457,-435 281.6903,-419.2642 287.1982,-398.6996 290.0909,-382.2293"/>
<polygon fill="#000000" stroke="#000000" points="293.5896,-382.5029 291.6397,-372.089 286.6698,-381.4459 293.5896,-382.5029"/>
<text text-anchor="middle" x="339.7457" y="-416.3" font-family="Times,serif" font-size="14.00" fill="#000000">from counterparty:</text>
<text text-anchor="middle" x="339.7457" y="-401.3" font-family="Times,serif" font-size="14.00" fill="#000000">proposeChannel</text>
</g>
<!-- OtherCreating -->
<g id="node4" class="node">
<title>OtherCreating</title>
<ellipse fill="none" stroke="#000000" cx="182.2457" cy="-252" rx="61.1893" ry="18"/>
<text text-anchor="middle" x="182.2457" y="-248.3" font-family="Times,serif" font-size="14.00" fill="#000000">OtherCreating</text>
</g>
<!-- Proposing&#45;&gt;OtherCreating -->
<g id="edge3" class="edge">
<title>Proposing&#45;&gt;OtherCreating</title>
<path fill="none" stroke="#000000" d="M154.8131,-335.9206C153.6366,-322.4078 153.3783,-303.6477 158.2457,-288 159.2497,-284.7723 160.6423,-281.567 162.2559,-278.476"/>
<polygon fill="#000000" stroke="#000000" points="165.4199,-280.0071 167.5919,-269.6373 159.4272,-276.3893 165.4199,-280.0071"/>
<text text-anchor="middle" x="188.7457" y="-306.8" font-family="Times,serif" font-size="14.00" fill="#000000">from user:</text>
<text text-anchor="middle" x="188.7457" y="-291.8" font-family="Times,serif" font-size="14.00" fill="#000000">fillChannel</text>
</g>
<!-- OtherProposing&#45;&gt;OtherCreating -->
<g id="edge4" class="edge">
<title>OtherProposing&#45;&gt;OtherCreating</title>
<path fill="none" stroke="#000000" d="M266.6476,-337.4788C258.417,-331.7895 249.59,-325.0603 242.2457,-318 230.1338,-306.3564 230.407,-300.5578 219.2457,-288 215.8352,-284.1628 212.0985,-280.2404 208.3523,-276.463"/>
<polygon fill="#000000" stroke="#000000" points="210.8005,-273.9617 201.2198,-269.4383 205.8886,-278.949 210.8005,-273.9617"/>
<text text-anchor="middle" x="280.7457" y="-306.8" font-family="Times,serif" font-size="14.00" fill="#000000">internal:</text>
<text text-anchor="middle" x="280.7457" y="-291.8" font-family="Times,serif" font-size="14.00" fill="#000000">proposeTimer</text>
</g>
<!-- Creating -->
<g id="node5" class="node">
<title>Creating</title>
<ellipse fill="none" stroke="#000000" cx="167.2457" cy="-18" rx="40.8928" ry="18"/>
<text text-anchor="middle" x="167.2457" y="-14.3" font-family="Times,serif" font-size="14.00" fill="#000000">Creating</text>
</g>
<!-- OtherProposing&#45;&gt;Creating -->
<g id="edge5" class="edge">
<title>OtherProposing&#45;&gt;Creating</title>
<path fill="none" stroke="#000000" d="M309.4443,-336.1774C313.4338,-330.7265 317.1584,-324.4553 319.2457,-318 323.348,-305.3134 319.3881,-301.3326 319.2457,-288 318.1345,-183.9822 379.3306,-135.1474 314.2457,-54 302.1116,-38.8713 255.0913,-29.2196 217.4535,-23.759"/>
<polygon fill="#000000" stroke="#000000" points="217.5088,-20.2334 207.1233,-22.3289 216.5489,-27.1673 217.5088,-20.2334"/>
<text text-anchor="middle" x="368.7457" y="-204.8" font-family="Times,serif" font-size="14.00" fill="#000000">from user:</text>
<text text-anchor="middle" x="368.7457" y="-189.8" font-family="Times,serif" font-size="14.00" fill="#000000">fillChannel</text>
<text text-anchor="middle" x="368.7457" y="-174.8" font-family="Times,serif" font-size="14.00" fill="#000000">out: </text>
</g>
<!-- Open -->
<g id="node6" class="node">
<title>Open</title>
<ellipse fill="none" stroke="#000000" cx="140.2457" cy="-135" rx="29.795" ry="18"/>
<text text-anchor="middle" x="140.2457" y="-131.3" font-family="Times,serif" font-size="14.00" fill="#000000">Open</text>
</g>
<!-- OtherCreating&#45;&gt;Open -->
<g id="edge7" class="edge">
<title>OtherCreating&#45;&gt;Open</title>
<path fill="none" stroke="#000000" d="M136.4329,-240.0126C115.2208,-233.4446 93.3586,-224.8536 87.2457,-216 75.8822,-199.5418 77.885,-188.6742 87.2457,-171 91.6807,-162.6263 99.0328,-155.8391 106.8696,-150.5099"/>
<polygon fill="#000000" stroke="#000000" points="108.7226,-153.4795 115.4485,-145.2933 105.0856,-147.4985 108.7226,-153.4795"/>
<text text-anchor="middle" x="129.7457" y="-197.3" font-family="Times,serif" font-size="14.00" fill="#000000">from chain:</text>
<text text-anchor="middle" x="129.7457" y="-182.3" font-family="Times,serif" font-size="14.00" fill="#000000">channelOpened</text>
</g>
<!-- Creating&#45;&gt;Open -->
<g id="edge6" class="edge">
<title>Creating&#45;&gt;Open</title>
<path fill="none" stroke="#000000" d="M163.0369,-36.2381C158.6505,-55.2461 151.7224,-85.2675 146.6553,-107.2253"/>
<polygon fill="#000000" stroke="#000000" points="143.2436,-106.4442 144.4053,-116.9752 150.0643,-108.0183 143.2436,-106.4442"/>
<text text-anchor="middle" x="234.7457" y="-87.8" font-family="Times,serif" font-size="14.00" fill="#000000">from counterparty:</text>
<text text-anchor="middle" x="234.7457" y="-72.8" font-family="Times,serif" font-size="14.00" fill="#000000">ok response to</text>
<text text-anchor="middle" x="234.7457" y="-57.8" font-family="Times,serif" font-size="14.00" fill="#000000">channelOpened notification</text>
</g>
<!-- Open&#45;&gt;OtherCreating -->
<g id="edge8" class="edge">
<title>Open&#45;&gt;OtherCreating</title>
<path fill="none" stroke="#000000" d="M157.2378,-149.9719C162.9368,-155.9347 168.7309,-163.2284 172.2457,-171 179.6465,-187.3638 182.1702,-207.38 182.832,-223.4205"/>
<polygon fill="#000000" stroke="#000000" points="179.3398,-223.865 183.0298,-233.7965 186.3385,-223.7315 179.3398,-223.865"/>
<text text-anchor="middle" x="234.7457" y="-197.3" font-family="Times,serif" font-size="14.00" fill="#000000">from counterparty:</text>
<text text-anchor="middle" x="234.7457" y="-182.3" font-family="Times,serif" font-size="14.00" fill="#000000">proposeChannel</text>
</g>
<!-- Open&#45;&gt;Creating -->
<g id="edge9" class="edge">
<title>Open&#45;&gt;Creating</title>
<path fill="none" stroke="#000000" d="M111.7056,-129.0684C75.0958,-121.1741 15.5371,-107.2535 9.2457,-99 -2.8788,-83.0941 -3.227,-69.6343 9.2457,-54 22.5896,-37.2737 75.8576,-27.7145 116.8947,-22.7105"/>
<polygon fill="#000000" stroke="#000000" points="117.5023,-26.1636 127.0326,-21.5349 116.6959,-19.2102 117.5023,-26.1636"/>
<text text-anchor="middle" x="77.2457" y="-87.8" font-family="Times,serif" font-size="14.00" fill="#000000">from counterparty:</text>
<text text-anchor="middle" x="77.2457" y="-72.8" font-family="Times,serif" font-size="14.00" fill="#000000">newChannel</text>
<text text-anchor="middle" x="77.2457" y="-57.8" font-family="Times,serif" font-size="14.00" fill="#000000">(as response to proposal)</text>
</g>
</g>
</svg>
