<?xml version="1.0" encoding="UTF-8" standalone="no"?>
<!DOCTYPE svg PUBLIC "-//W3C//DTD SVG 1.1//EN"
 "http://www.w3.org/Graphics/SVG/1.1/DTD/svg11.dtd">
<!-- Generated by graphviz version 2.40.1 (20161225.0304)
 -->
<!-- Title: G Pages: 1 -->
<svg width="546pt" height="518pt"
 viewBox="0.00 0.00 545.95 517.80" xmlns="http://www.w3.org/2000/svg" xmlns:xlink="http://www.w3.org/1999/xlink">
<g id="graph0" class="graph" transform="scale(1 1) rotate(0) translate(14.4 503.4)">
<title>G</title>
<polygon fill="#ffffff" stroke="transparent" points="-14.4,14.4 -14.4,-503.4 531.5459,-503.4 531.5459,14.4 -14.4,14.4"/>
<!-- New -->
<g id="node1" class="node">
<title>New</title>
<ellipse fill="none" stroke="#000000" cx="221" cy="-471" rx="27.0966" ry="18"/>
<text text-anchor="middle" x="221" y="-467.3" font-family="Times,serif" font-size="14.00" fill="#000000">New</text>
</g>
<!-- Proposing -->
<g id="node2" class="node">
<title>Proposing</title>
<ellipse fill="none" stroke="#000000" cx="471" cy="-354" rx="46.2923" ry="18"/>
<text text-anchor="middle" x="471" y="-350.3" font-family="Times,serif" font-size="14.00" fill="#000000">Proposing</text>
</g>
<!-- New&#45;&gt;Proposing -->
<g id="edge1" class="edge">
<title>New&#45;&gt;Proposing</title>
<path fill="none" stroke="#000000" d="M243.6268,-460.4107C286.3736,-440.4051 379.4422,-396.849 432.298,-372.1125"/>
<polygon fill="#000000" stroke="#000000" points="433.7905,-375.2784 441.3641,-367.8696 430.8233,-368.9384 433.7905,-375.2784"/>
<text text-anchor="middle" x="446.5" y="-423.8" font-family="Times,serif" font-size="14.00" fill="#000000">from user:</text>
<text text-anchor="middle" x="446.5" y="-408.8" font-family="Times,serif" font-size="14.00" fill="#000000">fillChannel</text>
<text text-anchor="middle" x="446.5" y="-393.8" font-family="Times,serif" font-size="14.00" fill="#000000">out: proposeChannel</text>
</g>
<!-- OtherProposing -->
<g id="node3" class="node">
<title>OtherProposing</title>
<ellipse fill="none" stroke="#000000" cx="162" cy="-354" rx="66.0889" ry="18"/>
<text text-anchor="middle" x="162" y="-350.3" font-family="Times,serif" font-size="14.00" fill="#000000">OtherProposing</text>
</g>
<!-- New&#45;&gt;OtherProposing -->
<g id="edge2" class="edge">
<title>New&#45;&gt;OtherProposing</title>
<path fill="none" stroke="#000000" d="M196.7007,-462.5022C184.2803,-456.7868 170.2814,-447.9013 163,-435 154.0409,-419.126 153.8972,-398.5632 155.9391,-382.1282"/>
<polygon fill="#000000" stroke="#000000" points="159.4335,-382.4366 157.5259,-372.015 152.5181,-381.3516 159.4335,-382.4366"/>
<text text-anchor="middle" x="214.5" y="-416.3" font-family="Times,serif" font-size="14.00" fill="#000000">from counterparty:</text>
<text text-anchor="middle" x="214.5" y="-401.3" font-family="Times,serif" font-size="14.00" fill="#000000">proposeChannel</text>
</g>
<!-- OtherCreating -->
<g id="node4" class="node">
<title>OtherCreating</title>
<ellipse fill="none" stroke="#000000" cx="280" cy="-252" rx="61.1893" ry="18"/>
<text text-anchor="middle" x="280" y="-248.3" font-family="Times,serif" font-size="14.00" fill="#000000">OtherCreating</text>
</g>
<!-- Proposing&#45;&gt;OtherCreating -->
<g id="edge3" class="edge">
<title>Proposing&#45;&gt;OtherCreating</title>
<path fill="none" stroke="#000000" d="M443.6344,-339.3859C410.9227,-321.9168 355.9569,-292.5634 318.8542,-272.7494"/>
<polygon fill="#000000" stroke="#000000" points="320.3004,-269.5539 309.8306,-267.9305 317.0029,-275.7286 320.3004,-269.5539"/>
<text text-anchor="middle" x="428.5" y="-306.8" font-family="Times,serif" font-size="14.00" fill="#000000">from user:</text>
<text text-anchor="middle" x="428.5" y="-291.8" font-family="Times,serif" font-size="14.00" fill="#000000">fillChannel</text>
</g>
<!-- OtherProposing&#45;&gt;OtherCreating -->
<g id="edge4" class="edge">
<title>OtherProposing&#45;&gt;OtherCreating</title>
<path fill="none" stroke="#000000" d="M165.332,-335.8445C168.8868,-321.1983 175.881,-300.9676 189,-288 198.1531,-278.9526 209.8569,-272.1074 221.8007,-266.9533"/>
<polygon fill="#000000" stroke="#000000" points="223.3681,-270.0975 231.3866,-263.1726 220.7998,-263.5857 223.3681,-270.0975"/>
<text text-anchor="middle" x="227.5" y="-306.8" font-family="Times,serif" font-size="14.00" fill="#000000">internal:</text>
<text text-anchor="middle" x="227.5" y="-291.8" font-family="Times,serif" font-size="14.00" fill="#000000">proposeTimer</text>
</g>
<!-- Creating -->
<g id="node5" class="node">
<title>Creating</title>
<ellipse fill="none" stroke="#000000" cx="171" cy="-18" rx="40.8928" ry="18"/>
<text text-anchor="middle" x="171" y="-14.3" font-family="Times,serif" font-size="14.00" fill="#000000">Creating</text>
</g>
<!-- OtherProposing&#45;&gt;Creating -->
<g id="edge5" class="edge">
<title>OtherProposing&#45;&gt;Creating</title>
<path fill="none" stroke="#000000" d="M162.2217,-335.7309C162.8345,-288.8952 164.7917,-160.717 169,-54 169.0957,-51.5724 169.2084,-49.0533 169.3307,-46.5265"/>
<polygon fill="#000000" stroke="#000000" points="172.8379,-46.4789 169.8686,-36.3087 165.8476,-46.1108 172.8379,-46.4789"/>
<text text-anchor="middle" x="196.5" y="-204.8" font-family="Times,serif" font-size="14.00" fill="#000000">from user:</text>
<text text-anchor="middle" x="196.5" y="-189.8" font-family="Times,serif" font-size="14.00" fill="#000000">fillChannel</text>
<text text-anchor="middle" x="196.5" y="-174.8" font-family="Times,serif" font-size="14.00" fill="#000000">out: </text>
</g>
<!-- OtherCreating&#45;&gt;New -->
<g id="edge8" class="edge">
<title>OtherCreating&#45;&gt;New</title>
<path fill="none" stroke="#000000" d="M283.1336,-270.183C288.1348,-304.6228 294.6614,-380.7707 266,-435 262.336,-441.9326 256.6976,-447.9946 250.6373,-453.0693"/>
<polygon fill="#000000" stroke="#000000" points="248.1492,-450.5608 242.2574,-459.3664 252.3544,-456.157 248.1492,-450.5608"/>
<text text-anchor="middle" x="350.5" y="-357.8" font-family="Times,serif" font-size="14.00" fill="#000000">internal:</text>
<text text-anchor="middle" x="350.5" y="-342.8" font-family="Times,serif" font-size="14.00" fill="#000000">newChannel expiration</text>
</g>
<!-- Open -->
<g id="node6" class="node">
<title>Open</title>
<ellipse fill="none" stroke="#000000" cx="303" cy="-135" rx="29.795" ry="18"/>
<text text-anchor="middle" x="303" y="-131.3" font-family="Times,serif" font-size="14.00" fill="#000000">Open</text>
</g>
<!-- OtherCreating&#45;&gt;Open -->
<g id="edge7" class="edge">
<title>OtherCreating&#45;&gt;Open</title>
<path fill="none" stroke="#000000" d="M267.7138,-234.0773C264.5652,-228.5277 261.6141,-222.229 260,-216 254.9832,-196.6394 251.5376,-189.1215 260,-171 262.9893,-164.5988 267.7387,-158.934 273.0102,-154.1026"/>
<polygon fill="#000000" stroke="#000000" points="275.4154,-156.6578 280.963,-147.6314 270.9974,-151.2281 275.4154,-156.6578"/>
<text text-anchor="middle" x="302.5" y="-197.3" font-family="Times,serif" font-size="14.00" fill="#000000">from chain:</text>
<text text-anchor="middle" x="302.5" y="-182.3" font-family="Times,serif" font-size="14.00" fill="#000000">channelOpened</text>
</g>
<!-- Creating&#45;&gt;New -->
<g id="edge9" class="edge">
<title>Creating&#45;&gt;New</title>
<path fill="none" stroke="#000000" d="M133.8955,-25.9116C83.6031,-39.064 0,-70.6111 0,-135 0,-354 0,-354 0,-354 0,-436.042 120.4319,-460.7151 183.4898,-468.0108"/>
<polygon fill="#000000" stroke="#000000" points="183.142,-471.4935 193.457,-469.0746 183.885,-464.533 183.142,-471.4935"/>
<text text-anchor="middle" x="63.5" y="-255.8" font-family="Times,serif" font-size="14.00" fill="#000000">internal:</text>
<text text-anchor="middle" x="63.5" y="-240.8" font-family="Times,serif" font-size="14.00" fill="#000000">newChannel expiration</text>
</g>
<!-- Creating&#45;&gt;Open -->
<g id="edge6" class="edge">
<title>Creating&#45;&gt;Open</title>
<path fill="none" stroke="#000000" d="M211.3247,-21.8159C252.1029,-26.6072 311.0512,-36.4144 325,-54 337.5306,-69.7977 330.0872,-92.183 320.6018,-109.4187"/>
<polygon fill="#000000" stroke="#000000" points="317.3654,-108.0111 315.2358,-118.3898 323.3728,-111.6044 317.3654,-108.0111"/>
<text text-anchor="middle" x="406.5" y="-87.8" font-family="Times,serif" font-size="14.00" fill="#000000">from counterparty:</text>
<text text-anchor="middle" x="406.5" y="-72.8" font-family="Times,serif" font-size="14.00" fill="#000000">ok response to</text>
<text text-anchor="middle" x="406.5" y="-57.8" font-family="Times,serif" font-size="14.00" fill="#000000">channelOpened notification</text>
</g>
<!-- Open&#45;&gt;OtherCreating -->
<g id="edge10" class="edge">
<title>Open&#45;&gt;OtherCreating</title>
<path fill="none" stroke="#000000" d="M324.5362,-147.736C332.5137,-153.6973 340.666,-161.5769 345,-171 353.3571,-189.1703 355.1538,-198.7692 345,-216 340.9938,-222.7985 335.1907,-228.4035 328.6783,-232.9972"/>
<polygon fill="#000000" stroke="#000000" points="326.7916,-230.0488 320.1318,-238.2887 330.4766,-236.0004 326.7916,-230.0488"/>
<text text-anchor="middle" x="402.5" y="-197.3" font-family="Times,serif" font-size="14.00" fill="#000000">from counterparty:</text>
<text text-anchor="middle" x="402.5" y="-182.3" font-family="Times,serif" font-size="14.00" fill="#000000">proposeChannel</text>
</g>
<!-- Open&#45;&gt;Creating -->
<g id="edge11" class="edge">
<title>Open&#45;&gt;Creating</title>
<path fill="none" stroke="#000000" d="M274.1419,-129.779C243.1632,-123.5775 196.7963,-112.3709 185,-99 172.4121,-84.7318 169.1386,-63.3548 168.8919,-46.1439"/>
<polygon fill="#000000" stroke="#000000" points="172.3926,-46.1282 169.0731,-36.0668 165.3937,-46.0022 172.3926,-46.1282"/>
<text text-anchor="middle" x="253" y="-87.8" font-family="Times,serif" font-size="14.00" fill="#000000">from counterparty:</text>
<text text-anchor="middle" x="253" y="-72.8" font-family="Times,serif" font-size="14.00" fill="#000000">newChannel</text>
<text text-anchor="middle" x="253" y="-57.8" font-family="Times,serif" font-size="14.00" fill="#000000">(as response to proposal)</text>
</g>
</g>
</svg>
